<?xml version="1.0" encoding="utf-8"?>
<!-- Generator: Adobe Illustrator 21.0.2, SVG Export Plug-In . SVG Version: 6.00 Build 0)  -->
<svg version="1.1" id="Layer_1" xmlns="http://www.w3.org/2000/svg" xmlns:xlink="http://www.w3.org/1999/xlink" x="0px" y="0px"
	 viewBox="0 0 212.4 180.6" style="enable-background:new 0 0 212.4 180.6;" xml:space="preserve">
<g>
	<path d="M211.9,174.2l-49.5-83.6c-0.8-1.2-2.2-2-3.7-2h-42.1v0.1c-2.4,0-4.4,2-4.4,4.3c0,0.7,0.1,1.3,0.4,1.9l0.4,0.7l19.4,32.7
		c0.5,0.7,0.8,1.5,0.8,2.5c0,2.4-1.9,4.3-4.3,4.3H83.6c-2.6,0-4.4-2-4.4-4.3c0-0.7,0.2-1.4,0.5-1.9L131,42.1
		c0.4-0.8,0.6-1.5,0.6-2.2c0-1-0.3-1.7-0.8-2.4L109.9,2c-0.8-1.2-2.2-2-3.7-2c-1.5,0-2.8,0.8-3.6,1.9L0.5,174.2
		c-0.4,0.6-0.5,1.3-0.5,2c0,2.4,2,4.4,4.4,4.4H208c2.4,0,4.4-2,4.4-4.4C212.4,175.4,212.3,174.8,211.9,174.2"/>
</g>
</svg>
