<?xml version="1.0" encoding="utf-8"?>
<!-- Generator: Adobe Illustrator 21.1.0, SVG Export Plug-In . SVG Version: 6.00 Build 0)  -->
<svg version="1.1" id="Layer_1" xmlns="http://www.w3.org/2000/svg" xmlns:xlink="http://www.w3.org/1999/xlink" x="0px" y="0px"
	 viewBox="0 0 212.4 180.6" style="enable-background:new 0 0 212.4 180.6;" xml:space="preserve">
<style type="text/css">
	.st0{fill:#FFFFFF;}
</style>
<g>
	<path d="M103.3,142.9c-0.1,0-0.2,0.1-0.2,0.2c-0.6,4-0.6,4-0.6,4c0,0.1,0.1,0.3,0.3,0.3h1.2c0.2,0,0.3-0.1,0.3-0.3c0,0,0,0-0.6-4
		C103.5,143,103.4,142.9,103.3,142.9z"/>
	<path d="M106.6,1.5c-49.2,0-89.1,39.9-89.1,89.1c0,49.2,39.9,89.1,89.1,89.1c49.2,0,89.1-39.9,89.1-89.1
		C195.7,41.4,155.8,1.5,106.6,1.5z M87.2,141.2c0,0.1-0.1,0.2-0.2,0.2h-3.2c-0.1,0-0.2-0.1-0.2-0.2V141c0-0.4-0.3-0.9-0.8-0.9h-0.5
		c-0.4,0-0.8,0.4-0.8,0.9v7.9c0,0.4,0.4,0.9,0.8,0.9h0.5c0.5,0,0.8-0.4,0.8-0.9v-1.7c0-0.3-0.2-0.6-0.6-0.6c-0.1,0-0.2-0.1-0.2-0.3
		v-2.7c0-0.2,0.1-0.2,0.2-0.3h4c0.1,0,0.2,0.1,0.2,0.2v6.5c0,2.6-2,3.2-4.4,3.2h-0.9c-2.4,0-4.4-0.6-4.4-3.2v-10.4
		c0-2.6,2-3.2,4.4-3.2h0.9c2.4,0,4.4,0.6,4.4,3.2V141.2z M94.8,152.8c0,0.1-0.1,0.2-0.2,0.2h-3.4c-0.1,0-0.2-0.1-0.2-0.2v-16
		c0-0.1,0.1-0.2,0.2-0.2h3.4c0.1,0,0.2,0.1,0.2,0.2V152.8z M108.8,153h-3.4c-0.1,0-0.3-0.1-0.3-0.2l-0.3-2.1c0-0.1-0.1-0.2-0.2-0.2
		h-2.4c-0.1,0-0.2,0.1-0.3,0.2l-0.3,2.1c0,0.1-0.1,0.2-0.3,0.2h-3.4c-0.2,0-0.3-0.1-0.3-0.2l3.5-15.9c0.1-0.2,0.1-0.3,0.2-0.3h3.8
		c0.1,0,0.2,0.1,0.2,0.3l3.5,15.9C109,152.9,108.9,153,108.8,153z M121.5,152.8c0,0.1-0.1,0.3-0.2,0.3h-3c-0.2,0-0.3-0.1-0.3-0.3
		l-1.7-4.5c-0.1-0.2-0.3-0.6-0.5-0.6c-0.2,0-0.3,0.2-0.3,0.4v4.7c0,0.1-0.1,0.3-0.3,0.3h-3.3c-0.1,0-0.2-0.1-0.2-0.3v-16
		c0-0.2,0.1-0.2,0.2-0.2h2.9c0.2,0,0.3,0,0.3,0.2l1.7,4.5c0.1,0.2,0.3,0.6,0.5,0.6c0.2,0,0.3-0.2,0.3-0.4v-4.7
		c0-0.2,0.1-0.2,0.3-0.2h3.3c0.1,0,0.2,0.1,0.2,0.2V152.8z M133.4,140c0,0.1-0.1,0.2-0.3,0.2h-1.8c-0.2,0-0.3,0.1-0.3,0.3v12.3
		c0,0.1-0.1,0.2-0.2,0.2h-3.4c-0.1,0-0.3-0.1-0.3-0.2v-12.3c0-0.2-0.2-0.3-0.3-0.3h-1.9c-0.1,0-0.2-0.1-0.2-0.2v-3.1
		c0-0.1,0.1-0.3,0.2-0.3h8.2c0.1,0,0.3,0.1,0.3,0.3V140z M173,130.1H40.2c-1.6,0-2.9-1.3-2.9-2.9c0-0.5,0.1-0.9,0.3-1.3l66.6-112.4
		c0.5-0.7,1.4-1.2,2.4-1.2c1,0,1.9,0.5,2.4,1.3l13.7,23.1c0.3,0.5,0.5,1,0.5,1.6c0,0.5-0.1,1-0.4,1.5L89.3,96.2
		C89.1,96.6,89,97,89,97.5c0,1.5,1.2,2.8,2.9,2.8h29.6c1.6,0,2.8-1.3,2.8-2.8c0-0.6-0.2-1.2-0.5-1.6l-12.6-21.3l-0.3-0.5
		c-0.2-0.4-0.3-0.8-0.3-1.2c0-1.5,1.3-2.8,2.9-2.8v0h27.4c1,0,1.9,0.5,2.4,1.3l32.3,54.6c0.2,0.4,0.3,0.8,0.3,1.3
		C175.9,128.8,174.6,130.1,173,130.1z"/>
	<path class="st0" d="M102.8,110.7h-0.7c-0.2,0-0.2,0.1-0.2,0.2v2.8c0,0.1,0.1,0.3,0.2,0.3h0.7c0.5,0,1-0.4,1-1v-1.4
		C103.8,111.1,103.4,110.7,102.8,110.7z"/>
	<path d="M59.9,121.1h2.4c0.1,0,0.2,0.1,0.2,0.2l0.3,2.1c0,0.1,0.1,0.2,0.3,0.2h3.4c0.2,0,0.3-0.1,0.3-0.2l-3.6-15.9
		c0-0.2-0.1-0.3-0.2-0.3h-3.8c-0.1,0-0.2,0.1-0.2,0.3l-3.5,15.9c0,0.1,0.1,0.2,0.2,0.2h3.4c0.1,0,0.3-0.1,0.3-0.2 M61.7,118h-1.2
		c-0.2,0-0.3-0.1-0.3-0.3c0,0,0,0,0.6-4c0-0.1,0.1-0.2,0.2-0.2c0.1,0,0.2,0.1,0.2,0.2c0.6,4,0.6,4,0.6,4C62,117.8,61.8,118,61.7,118
		z"/>
	<path d="M94,107.2h-7.5c-0.2,0-0.3,0.1-0.3,0.3v16c0,0.1,0.1,0.2,0.3,0.2H94c0.1,0,0.2-0.1,0.2-0.2v-3.3c0-0.1-0.1-0.2-0.2-0.2
		h-3.4c-0.3,0-0.6-0.2-0.6-0.6v-1.7c0-0.3,0.2-0.6,0.6-0.6h2.9c0.1,0,0.3-0.1,0.3-0.2v-3.1c0-0.1-0.1-0.2-0.2-0.2h-3
		c-0.3,0-0.6-0.2-0.6-0.6v-1.6c0-0.3,0.3-0.5,0.6-0.5c0.1,0,0.2,0,3.4,0c0.1,0,0.2-0.1,0.2-0.2v-3.1C94.2,107.3,94.1,107.2,94,107.2
		z"/>
	<path d="M82.2,107.2h-3.1c-0.2,0-0.3,0-0.3,0.2l-2.2,5.7c-0.1,0.2-0.4,0.7-0.7,0.7c-0.3,0-0.6-0.4-0.6-0.7l-2.2-5.7
		c-0.1-0.2-0.1-0.2-0.3-0.2h-3.1c-0.1,0-0.2,0.1-0.2,0.2v16c0,0.1,0.1,0.2,0.2,0.2H73c0.1,0,0.2-0.1,0.2-0.2v-5.5
		c0-0.2,0.2-0.4,0.3-0.4c0.4,0,0.4,1.3,1,2.5c0.1,0.2,0.2,0.4,0.4,0.4H77c0.2,0,0.3-0.2,0.4-0.4c0.6-1.1,0.6-2.5,1-2.5
		c0.2,0,0.3,0.2,0.3,0.4v5.5c0,0.1,0.1,0.2,0.2,0.2h3.3c0.1,0,0.2-0.1,0.2-0.2v-16C82.5,107.3,82.4,107.2,82.2,107.2z"/>
	<path d="M106,116.6c0-0.1,0-0.3,0.2-0.4c0.3-0.2,0.8-0.3,1.1-0.8c0.2-0.4,0.3-0.9,0.3-1.3v-3.8c0-1.7-1.4-3.1-3.1-3.1h-6.1
		c-0.1,0-0.2,0.1-0.2,0.2v16c0,0.1,0.1,0.2,0.2,0.2h3.4c0.1,0,0.2-0.1,0.2-0.2v-5.1c0-0.2,0.2-0.4,0.3-0.4c0.1,0,0.2,0.1,0.3,0.3
		l2.8,5.3c0,0,0.1,0.2,0.3,0.2h3.3c0.2,0,0.3-0.1,0.2-0.2C106.1,117.1,106,116.9,106,116.6z M103.8,113c0,0.5-0.4,1-1,1h-0.7
		c-0.2,0-0.2-0.1-0.2-0.3V111c0-0.1,0.1-0.2,0.2-0.2h0.7c0.5,0,1,0.4,1,1V113z"/>
	<path d="M138.9,107.2h-3.8c-0.1,0-0.2,0.1-0.2,0.3l-3.5,15.9c0,0.1,0.1,0.2,0.2,0.2h3.4c0.1,0,0.3-0.1,0.3-0.2l0.3-2.1
		c0-0.1,0.1-0.2,0.3-0.2h2.4c0.1,0,0.2,0.1,0.2,0.2l0.3,2.1c0,0.1,0.1,0.2,0.3,0.2h3.4c0.1,0,0.2-0.1,0.2-0.2l-3.6-15.9
		C139.1,107.3,139,107.2,138.9,107.2z M137.6,118h-1.2c-0.2,0-0.3-0.1-0.3-0.3c0,0,0,0,0.6-4c0-0.1,0.1-0.2,0.2-0.2
		c0.1,0,0.2,0.1,0.2,0.2c0.6,4,0.6,4,0.6,4C137.8,117.8,137.7,118,137.6,118z"/>
	<path d="M155.2,107.2h-3.3c-0.1,0-0.2,0.1-0.2,0.2v4.7c0,0.2-0.2,0.4-0.3,0.4c-0.2,0-0.4-0.4-0.5-0.6l-1.7-4.5
		c-0.1-0.2-0.2-0.2-0.3-0.2h-2.9c-0.1,0-0.3,0.1-0.3,0.2v16c0,0.1,0.1,0.3,0.3,0.3h3.3c0.2,0,0.2-0.1,0.2-0.3v-4.7
		c0-0.2,0.2-0.4,0.3-0.4c0.2,0,0.4,0.4,0.5,0.6l1.7,4.5c0.1,0.2,0.2,0.3,0.3,0.3h3c0.1,0,0.2-0.1,0.2-0.3v-16
		C155.4,107.3,155.3,107.2,155.2,107.2z"/>
	<path d="M124.7,107.1h-0.6c-2.4,0-4.4,0.6-4.4,3.2v10.3c0,2.6,2,3.2,4.4,3.2h0.6c2.4,0,4.4-0.6,4.4-3.2V119c0-0.2-0.1-0.3-0.2-0.3
		h-3.2c-0.1,0-0.2,0.1-0.2,0.3v0.4c0,0.4-0.3,0.9-0.8,0.9h-0.3c-0.4,0-0.8-0.4-0.8-0.9v-7.8c0-0.4,0.4-0.9,0.8-0.9h0.3
		c0.5,0,0.8,0.4,0.8,0.9v0.7c0,0.1,0.1,0.3,0.2,0.3h3.2c0.1,0,0.2-0.1,0.2-0.3v-2C129.1,107.7,127.1,107.1,124.7,107.1z"/>
	<path d="M115.6,107.2h-3.4c-0.2,0-0.3,0.1-0.3,0.2v15.9c0,0.1,0.1,0.2,0.3,0.2h3.4c0.1,0,0.2-0.1,0.2-0.2v-15.9
		C115.9,107.3,115.8,107.2,115.6,107.2z"/>
</g>
</svg>
