<?xml version="1.0" encoding="utf-8"?>
<!-- Generator: Adobe Illustrator 21.1.0, SVG Export Plug-In . SVG Version: 6.00 Build 0)  -->
<svg version="1.1" id="Layer_1" xmlns="http://www.w3.org/2000/svg" xmlns:xlink="http://www.w3.org/1999/xlink" x="0px" y="0px"
	 viewBox="0 0 175.3 80.3" style="enable-background:new 0 0 175.3 80.3;" xml:space="preserve">
<g>
	<g>
		<path d="M71.3,14.8c-0.1,0-0.2,0-0.2,0.2l-1.3,3.1c-0.2,0.6-0.4,1.2-0.4,1.4c0,0.4,0.2,0.7,1,0.7h0.4c0.3,0,0.4,0.1,0.4,0.3
			c0,0.2-0.1,0.2-0.4,0.2c-0.8,0-1.9-0.1-2.7-0.1c-0.3,0-1.5,0.1-2.8,0.1c-0.3,0-0.4-0.1-0.4-0.2c0-0.1,0.1-0.3,0.3-0.3
			c0.2,0,0.5,0,0.7,0c1.1-0.2,1.5-0.9,2-2.1l6.3-14.8c0.3-0.7,0.5-0.9,0.7-0.9c0.4,0,0.5,0.2,0.7,0.7c0.6,1.3,4.6,10.9,6.2,14.5
			c0.9,2.1,1.6,2.4,2.1,2.5c0.4,0.1,0.6,0.1,0.9,0.1c0.2,0,0.3,0.1,0.3,0.3c0,0.2-0.1,0.2-1,0.2c-0.9,0-2.6,0-4.7-0.1
			c-0.4,0-0.7,0-0.7-0.2c0-0.1,0.1-0.2,0.3-0.3c0.2,0,0.3-0.2,0.2-0.5L77.2,15c-0.1-0.1-0.1-0.2-0.3-0.2H71.3z M76.5,13.5
			c0.1,0,0.1-0.1,0.1-0.1l-2.3-6c0-0.1-0.1-0.2-0.1-0.2c-0.1,0-0.1,0.1-0.1,0.2l-2.3,5.9c-0.1,0.1,0,0.2,0.1,0.2H76.5z"/>
		<path d="M86.9,20.4c-0.4-0.2-0.5-0.3-0.5-0.8c0-1.3,0.1-2.7,0.1-3.1c0-0.4,0.1-0.6,0.3-0.6c0.2,0,0.2,0.2,0.2,0.4
			c0,0.3,0.1,0.8,0.2,1.2c0.5,1.7,2.3,2.3,3.9,2.3c2.1,0,3.4-1.3,3.4-3c0-1-0.3-2-2.4-3.3l-1.4-0.8C87.9,11,87,9.4,87,7.4
			c0-2.9,2.8-4.7,6.1-4.7c1.6,0,2.8,0.2,3.4,0.4c0.2,0.1,0.3,0.1,0.3,0.3c0,0.3-0.1,1-0.1,2.8c0,0.5-0.1,0.7-0.3,0.7
			c-0.2,0-0.3-0.1-0.3-0.4c0-0.2-0.1-0.9-0.6-1.5c-0.4-0.4-1.1-1.1-2.7-1.1c-1.7,0-3.3,0.9-3.3,2.5c0,1,0.4,1.9,2.6,3.1l1,0.6
			c3.2,1.8,4.2,3.6,4.2,5.7c0,1.7-0.7,3.2-2.4,4.4c-1.2,0.8-2.8,1-4.1,1C89.5,21,88,20.9,86.9,20.4z"/>
		<path d="M101.7,9.8c0-3.6,0-4.2,0-5c-0.1-0.8-0.3-1.1-0.8-1.2c-0.3-0.1-0.6-0.1-0.9-0.1c-0.2,0-0.4-0.1-0.4-0.3
			c0-0.1,0.2-0.2,0.6-0.2c0.9,0,2.6,0.1,3.3,0.1c0.6,0,2.2-0.1,3.1-0.1c0.3,0,0.5,0.1,0.5,0.2c0,0.2-0.1,0.3-0.4,0.3
			c-0.2,0-0.4,0-0.7,0.1C105.2,3.6,105,4,105,4.8c-0.1,0.7-0.1,1.4-0.1,5v4.1c0,2.3,0,4.1,0.1,5.1c0.1,0.6,0.2,1,1,1.1
			c0.3,0.1,0.9,0.1,1.2,0.1c0.3,0,0.4,0.1,0.4,0.3c0,0.2-0.2,0.2-0.5,0.2c-1.6,0-3.3-0.1-3.9-0.1c-0.6,0-2.2,0.1-3.2,0.1
			c-0.3,0-0.5-0.1-0.5-0.2c0-0.1,0.1-0.3,0.4-0.3c0.4,0,0.6,0,0.9-0.1c0.5-0.1,0.6-0.4,0.7-1.1c0.1-1,0.1-2.8,0.1-5.1V9.8z"/>
		<path d="M114.8,14.8c-0.1,0-0.2,0-0.2,0.2l-1.3,3.1c-0.2,0.6-0.4,1.2-0.4,1.4c0,0.4,0.2,0.7,1,0.7h0.4c0.3,0,0.4,0.1,0.4,0.3
			c0,0.2-0.1,0.2-0.4,0.2c-0.8,0-1.9-0.1-2.7-0.1c-0.3,0-1.5,0.1-2.8,0.1c-0.3,0-0.4-0.1-0.4-0.2c0-0.1,0.1-0.3,0.3-0.3
			c0.2,0,0.5,0,0.7,0c1.1-0.2,1.5-0.9,2-2.1l6.3-14.8c0.3-0.7,0.5-0.9,0.7-0.9c0.4,0,0.5,0.2,0.7,0.7c0.6,1.3,4.6,10.9,6.2,14.5
			c0.9,2.1,1.6,2.4,2.1,2.5c0.4,0.1,0.6,0.1,0.9,0.1c0.2,0,0.3,0.1,0.3,0.3c0,0.2-0.1,0.2-1,0.2c-0.9,0-2.6,0-4.7-0.1
			c-0.4,0-0.7,0-0.7-0.2c0-0.1,0.1-0.2,0.3-0.3c0.2,0,0.3-0.2,0.2-0.5l-1.9-4.7c-0.1-0.1-0.1-0.2-0.2-0.2H114.8z M120,13.5
			c0.1,0,0.1-0.1,0.1-0.1l-2.3-6c0-0.1-0.1-0.2-0.1-0.2c-0.1,0-0.1,0.1-0.1,0.2l-2.3,5.9c-0.1,0.1,0,0.2,0.1,0.2H120z"/>
		<path d="M133,17.5c0.1,1.8,0.4,2.4,0.8,2.5c0.4,0.1,0.9,0.2,1.3,0.2c0.3,0,0.4,0.1,0.4,0.3c0,0.2-0.2,0.2-0.6,0.2
			c-1.6,0-2.7-0.1-3.1-0.1c-0.2,0-1.4,0.1-2.6,0.1c-0.3,0-0.6,0-0.6-0.2c0-0.1,0.2-0.3,0.4-0.3c0.3,0,0.8,0,1.1-0.1
			c0.6-0.2,0.7-0.8,0.7-2.8l0.2-13.9c0-0.5,0.2-0.8,0.4-0.8c0.3,0,0.6,0.4,1,0.8c0.3,0.3,3.9,4,7.5,7.5c1.7,1.6,4.9,4.9,5.2,5.3h0.1
			l-0.2-10.4c0-1.4-0.2-1.9-0.8-2.1c-0.4-0.1-0.9-0.1-1.3-0.1c-0.3,0-0.4-0.1-0.4-0.2c0-0.2,0.3-0.2,0.6-0.2c1.3,0,2.6,0.1,3.1,0.1
			c0.3,0,1.2-0.1,2.4-0.1c0.3,0,0.6,0,0.6,0.2c0,0.1-0.1,0.2-0.4,0.2c-0.2,0-0.4,0-0.7,0.1c-0.7,0.2-0.9,0.6-0.9,1.9L147,20.2
			c0,0.5-0.2,0.7-0.4,0.7c-0.4,0-0.7-0.2-1-0.5c-1.5-1.4-4.6-4.3-7.1-6.8c-2.6-2.5-5.2-5.4-5.7-5.8h-0.1L133,17.5z"/>
	</g>
	<g>
		<path d="M70.3,42.4c0,3,0,4.5,0.5,4.9c0.4,0.4,1.4,0.5,3.2,0.5c1.3,0,2.2,0,2.8-0.7c0.3-0.3,0.6-1,0.6-1.4c0-0.2,0.1-0.4,0.3-0.4
			c0.2,0,0.2,0.2,0.2,0.5c0,0.3-0.2,2-0.4,2.7c-0.2,0.5-0.3,0.6-1.5,0.6c-1.7,0-3.1,0-4.4-0.1c-1.2,0-2.2-0.1-3.2-0.1
			c-0.3,0-0.8,0-1.4,0c-0.6,0-1.2,0.1-1.7,0.1c-0.3,0-0.5-0.1-0.5-0.2c0-0.1,0.1-0.3,0.4-0.3c0.4,0,0.6,0,0.9-0.1
			c0.5-0.1,0.6-0.6,0.7-1.2c0.1-1,0.1-2.8,0.1-5v-4.1c0-3.6,0-4.2,0-5c-0.1-0.8-0.3-1-1-1.3C65.8,32,65.4,32,65.1,32
			c-0.3,0-0.4-0.1-0.4-0.2c0-0.2,0.2-0.2,0.5-0.2c1.1,0,2.7,0.1,3.3,0.1c0.6,0,2.6-0.1,3.5-0.1c0.4,0,0.5,0.1,0.5,0.2
			c0,0.2-0.1,0.2-0.4,0.2c-0.3,0-0.7,0-0.9,0.1c-0.7,0.1-0.9,0.4-0.9,1.3c-0.1,0.7-0.1,1.4-0.1,5V42.4z"/>
		<path d="M86.6,43.4c-0.1,0-0.2,0-0.2,0.2l-1.3,3.1c-0.3,0.6-0.4,1.2-0.4,1.4c0,0.4,0.2,0.7,1,0.7H86c0.3,0,0.4,0.1,0.4,0.3
			c0,0.2-0.1,0.2-0.4,0.2c-0.8,0-1.9-0.1-2.7-0.1c-0.2,0-1.5,0.1-2.8,0.1c-0.3,0-0.4-0.1-0.4-0.2c0-0.1,0.1-0.3,0.3-0.3
			c0.2,0,0.5,0,0.7,0c1.1-0.2,1.5-0.9,2-2.1l6.3-14.8c0.3-0.7,0.5-0.9,0.7-0.9c0.4,0,0.5,0.2,0.7,0.7c0.6,1.3,4.6,10.9,6.2,14.5
			c0.9,2.1,1.6,2.4,2.1,2.5c0.4,0.1,0.6,0.1,0.9,0.1c0.2,0,0.3,0.1,0.3,0.3c0,0.2-0.1,0.2-1,0.2c-0.9,0-2.6,0-4.7-0.1
			c-0.4,0-0.7,0-0.7-0.2c0-0.1,0.1-0.2,0.3-0.3c0.2,0,0.3-0.2,0.2-0.5l-1.9-4.7c-0.1-0.1-0.1-0.2-0.3-0.2H86.6z M91.8,42.1
			c0.1,0,0.1-0.1,0.1-0.1l-2.3-6c0-0.1-0.1-0.2-0.1-0.2c-0.1,0-0.1,0.1-0.1,0.2L87,41.9c-0.1,0.1,0,0.2,0.1,0.2H91.8z"/>
		<path d="M98.5,33.8c-0.3-0.9-0.5-1.4-0.9-1.6C97.4,32,97,32,96.7,32c-0.2,0-0.4-0.1-0.4-0.2c0-0.2,0.2-0.2,0.6-0.2
			c1.2,0,2.6,0.1,2.8,0.1c0.2,0,1.4-0.1,2.8-0.1c0.4,0,0.5,0.1,0.5,0.2c0,0.2-0.2,0.2-0.4,0.2c-0.2,0-0.4,0-0.6,0.1
			c-0.2,0.1-0.3,0.2-0.3,0.5c0,0.3,0.2,1.1,0.5,2.2c0.4,1.5,2.6,8.6,3,9.7h0.1l4.6-12c0.2-0.7,0.5-0.9,0.7-0.9
			c0.3,0,0.5,0.4,0.8,1.1l4.9,11.6h0.1c0.5-1.4,2.3-7.5,3.2-10.3c0.2-0.6,0.2-1,0.2-1.4c0-0.4-0.2-0.7-1.2-0.7
			c-0.2,0-0.4-0.1-0.4-0.2c0-0.2,0.2-0.2,0.6-0.2c1.3,0,2.4,0.1,2.6,0.1c0.2,0,1.2-0.1,2-0.1c0.3,0,0.4,0.1,0.4,0.2
			c0,0.2-0.1,0.3-0.3,0.3c-0.2,0-0.6,0-0.9,0.1c-0.6,0.2-0.9,1.1-1.4,2.5c-1.1,3-3.6,10.4-4.8,13.9c-0.3,0.8-0.4,1.1-0.8,1.1
			c-0.3,0-0.5-0.3-0.9-1.1L110,36.9h-0.1c-0.4,1-3.7,9.3-4.7,11.4c-0.4,1-0.6,1.2-0.9,1.2c-0.3,0-0.4-0.2-0.7-0.9L98.5,33.8z"/>
	</g>
	<g>
		<path d="M68.2,75.3c-2.4-2-3-4.7-3-6.9c0-1.6,0.5-4.4,2.8-6.4c1.8-1.5,4.1-2.5,7.7-2.5c1.5,0,2.4,0.1,3.5,0.2
			c0.9,0.1,1.7,0.3,2.4,0.4c0.3,0,0.4,0.1,0.4,0.3c0,0.2-0.1,0.5-0.1,1.3c-0.1,0.8-0.1,2.1-0.1,2.5c0,0.3-0.1,0.6-0.3,0.6
			c-0.2,0-0.3-0.2-0.3-0.5c0-0.7-0.3-1.6-0.9-2.2c-0.8-0.8-2.5-1.4-4.7-1.4c-2.1,0-3.5,0.4-4.6,1.3c-1.8,1.5-2.2,3.8-2.2,6.1
			c0,5.6,4.3,8.2,7.6,8.2c2.2,0,3.3-0.2,4.3-1.2c0.4-0.5,0.7-1.1,0.8-1.6c0.1-0.4,0.1-0.5,0.3-0.5c0.2,0,0.3,0.2,0.3,0.4
			c0,0.3-0.3,2.3-0.5,3.1c-0.1,0.4-0.2,0.5-0.6,0.7c-1,0.4-2.8,0.5-4.4,0.5C73.2,77.8,70.4,77.2,68.2,75.3z"/>
		<path d="M90.4,71.6c-0.1,0-0.2,0-0.2,0.2L88.9,75c-0.3,0.6-0.4,1.2-0.4,1.4c0,0.4,0.2,0.7,1,0.7h0.4c0.3,0,0.4,0.1,0.4,0.3
			c0,0.2-0.1,0.2-0.4,0.2c-0.8,0-1.9-0.1-2.7-0.1c-0.2,0-1.5,0.1-2.8,0.1c-0.3,0-0.4-0.1-0.4-0.2c0-0.1,0.1-0.3,0.3-0.3
			c0.2,0,0.5,0,0.7,0c1.1-0.2,1.5-0.9,2-2.1l6.3-14.8c0.3-0.7,0.5-0.9,0.7-0.9c0.4,0,0.5,0.2,0.7,0.7c0.6,1.3,4.6,10.9,6.2,14.5
			c0.9,2.1,1.6,2.4,2.1,2.5c0.4,0.1,0.6,0.1,0.9,0.1c0.2,0,0.3,0.1,0.3,0.3c0,0.2-0.1,0.2-1,0.2c-0.9,0-2.6,0-4.7-0.1
			c-0.4,0-0.7,0-0.7-0.2c0-0.1,0.1-0.2,0.3-0.3c0.2,0,0.3-0.2,0.2-0.5l-1.9-4.7c-0.1-0.1-0.1-0.2-0.2-0.2H90.4z M95.6,70.3
			c0.1,0,0.1-0.1,0.1-0.1l-2.3-6c0-0.1-0.1-0.2-0.1-0.2c-0.1,0-0.1,0.1-0.1,0.2l-2.3,5.9c-0.1,0.1,0,0.2,0.1,0.2H95.6z"/>
		<path d="M104.7,66.6c0-3.6,0-4.2,0-5c-0.1-0.8-0.3-1-1-1.3c-0.2-0.1-0.6-0.1-0.9-0.1c-0.3,0-0.4-0.1-0.4-0.2
			c0-0.2,0.2-0.2,0.5-0.2c1.3,0,2.9,0.1,3.6,0.1c0.6,0,2.2-0.1,3.1-0.1c0.4,0,0.5,0.1,0.5,0.2c0,0.2-0.1,0.2-0.4,0.2
			c-0.3,0-0.4,0-0.7,0.1c-0.6,0.1-0.8,0.4-0.9,1.3c-0.1,0.7-0.1,1.4-0.1,5v3.3c0,3.4,0.7,4.7,1.8,5.7c1.1,0.9,2.2,0.9,3.1,0.9
			c1,0,2.3-0.3,3.3-1.2c1.4-1.3,1.4-3.3,1.4-5.7v-3c0-3.6,0-4.2-0.1-5c-0.1-0.8-0.2-1-1-1.3c-0.2-0.1-0.6-0.1-0.9-0.1
			c-0.3,0-0.4-0.1-0.4-0.2c0-0.2,0.2-0.2,0.5-0.2c1.2,0,2.9,0.1,2.9,0.1c0.3,0,1.9-0.1,2.8-0.1c0.3,0,0.5,0.1,0.5,0.2
			c0,0.2-0.1,0.2-0.4,0.2c-0.3,0-0.4,0-0.7,0.1c-0.7,0.1-0.8,0.4-0.9,1.3c0,0.7-0.1,1.4-0.1,5v2.5c0,2.6-0.3,5.4-2.3,7.1
			c-1.7,1.4-3.6,1.7-5.1,1.7c-1.3,0-3.8-0.1-5.5-1.6c-1.2-1.1-2.2-2.8-2.2-6.2V66.6z"/>
		<path d="M125.5,75.3c-2.4-2-3-4.7-3-6.9c0-1.6,0.5-4.4,2.8-6.4c1.8-1.5,4.1-2.5,7.7-2.5c1.5,0,2.4,0.1,3.5,0.2
			c0.9,0.1,1.7,0.3,2.4,0.4c0.3,0,0.4,0.1,0.4,0.3c0,0.2-0.1,0.5-0.1,1.3c-0.1,0.8-0.1,2.1-0.1,2.5c0,0.3-0.1,0.6-0.3,0.6
			c-0.2,0-0.2-0.2-0.2-0.5c0-0.7-0.3-1.6-0.9-2.2c-0.8-0.8-2.5-1.4-4.7-1.4c-2.1,0-3.5,0.4-4.6,1.3c-1.8,1.5-2.2,3.8-2.2,6.1
			c0,5.6,4.3,8.2,7.6,8.2c2.1,0,3.3-0.2,4.3-1.2c0.4-0.5,0.7-1.1,0.8-1.6c0.1-0.4,0.1-0.5,0.3-0.5c0.2,0,0.3,0.2,0.3,0.4
			c0,0.3-0.3,2.3-0.5,3.1c-0.1,0.4-0.2,0.5-0.6,0.7c-1,0.4-2.8,0.5-4.4,0.5C130.5,77.8,127.7,77.2,125.5,75.3z"/>
		<path d="M143.8,66.6c0-3.6,0-4.2,0-5c-0.1-0.8-0.3-1-1-1.3c-0.2-0.1-0.6-0.1-0.9-0.1c-0.3,0-0.4-0.1-0.4-0.2
			c0-0.2,0.2-0.2,0.5-0.2c1.3,0,2.9,0.1,3.6,0.1c0.6,0,2.2-0.1,3.1-0.1c0.4,0,0.5,0.1,0.5,0.2c0,0.2-0.1,0.2-0.4,0.2
			c-0.3,0-0.4,0-0.7,0.1c-0.6,0.1-0.8,0.4-0.9,1.3c-0.1,0.7-0.1,1.4-0.1,5v3.3c0,3.4,0.7,4.7,1.8,5.7c1.1,0.9,2.2,0.9,3.1,0.9
			c1,0,2.3-0.3,3.3-1.2c1.4-1.3,1.4-3.3,1.4-5.7v-3c0-3.6,0-4.2-0.1-5c-0.1-0.8-0.2-1-1-1.3c-0.2-0.1-0.6-0.1-0.9-0.1
			s-0.4-0.1-0.4-0.2c0-0.2,0.2-0.2,0.5-0.2c1.2,0,2.9,0.1,2.9,0.1c0.3,0,1.9-0.1,2.8-0.1c0.3,0,0.5,0.1,0.5,0.2
			c0,0.2-0.1,0.2-0.4,0.2c-0.3,0-0.4,0-0.7,0.1c-0.7,0.1-0.8,0.4-0.9,1.3c0,0.7-0.1,1.4-0.1,5v2.5c0,2.6-0.3,5.4-2.3,7.1
			c-1.7,1.4-3.6,1.7-5.1,1.7c-1.3,0-3.8-0.1-5.5-1.6c-1.2-1.1-2.2-2.8-2.2-6.2V66.6z"/>
		<path d="M162.9,77.2c-0.4-0.2-0.5-0.3-0.5-0.8c0-1.3,0.1-2.7,0.1-3.1c0-0.4,0.1-0.6,0.3-0.6c0.2,0,0.2,0.2,0.2,0.4
			c0,0.3,0.1,0.8,0.2,1.2c0.5,1.7,2.3,2.3,3.9,2.3c2.1,0,3.4-1.3,3.4-3c0-1-0.2-2-2.4-3.3l-1.4-0.8c-2.9-1.7-3.8-3.3-3.8-5.3
			c0-2.9,2.8-4.7,6.1-4.7c1.6,0,2.8,0.2,3.4,0.4c0.2,0.1,0.3,0.1,0.3,0.3c0,0.3-0.1,1-0.1,2.8c0,0.5-0.1,0.7-0.3,0.7
			c-0.2,0-0.2-0.1-0.2-0.4c0-0.2-0.1-0.9-0.6-1.5c-0.4-0.4-1.1-1.1-2.7-1.1c-1.7,0-3.3,0.9-3.3,2.5c0,1,0.4,1.9,2.6,3.1l1,0.6
			c3.2,1.8,4.2,3.6,4.2,5.7c0,1.7-0.7,3.2-2.4,4.4c-1.2,0.8-2.8,1-4.1,1C165.5,77.8,164,77.7,162.9,77.2z"/>
	</g>
	<g>
		<path d="M27,63.2c6.1-0.8,12.2-6,12.9-12c0.6-5.8-3.9-11.6-12.9-18.4c-9.2-7-14-11.5-15.9-18c-1.6-5.6,2.6-12,7.7-12.6
			C13.4,6.5,15.9,14.5,37.1,26C51.5,33.9,59.2,42.4,57,51C54.6,60.2,43.4,66.9,27,63.2"/>
		<path d="M23.2,62.3c5.1-1.2,9.2-7.1,6.6-13.1c-2.6-6-8.7-9.6-13.6-14.1C9.7,29.4,7.8,24.3,9,20.3c-3.8,6.3-4.6,15,6.1,25.3
			C25.2,55.4,25.4,58.8,23.2,62.3"/>
		<path d="M1.5,51.3C15.1,63.2,32.6,74,46.5,75.7c-4.2,4.4-12.7,4.4-22.2-1.4C16.5,69.6,5.8,59,1.5,51.3"/>
	</g>
</g>
</svg>
