<?xml version="1.0" encoding="utf-8"?>
<!-- Generator: Adobe Illustrator 21.1.0, SVG Export Plug-In . SVG Version: 6.00 Build 0)  -->
<svg version="1.1" id="Layer_1" xmlns="http://www.w3.org/2000/svg" xmlns:xlink="http://www.w3.org/1999/xlink" x="0px" y="0px"
	 viewBox="0 0 149.5 132.2" style="enable-background:new 0 0 149.5 132.2;" xml:space="preserve">
<style type="text/css">
	.st0{opacity:0.5;}
	.st1{fill:#F2F2F3;}
	.st2{fill:#231F20;}
</style>
<g>
	<g>
		<polygon points="74.4,105.8 127.4,52.9 114.2,39.7 97.6,56.3 		"/>
	</g>
	<g class="st0">
		<polygon class="st1" points="74.4,0 21.5,52.9 74.4,105.8 97.6,56.3 114.2,39.7 		"/>
	</g>
</g>
<path class="st2" d="M10.7,129.5c-0.7,1.6-2.4,2.7-4.7,2.7c-3.7,0-6-2.4-6-6c0-3.3,1.9-6,5.7-6c3.7,0,5.4,2.3,5.6,4.6h-4
	c-0.3-1.1-1-1.4-1.6-1.4c-0.7,0-1.9,0.4-1.9,2.8S5,129,5.7,129c0.4,0,1-0.1,1.4-0.9c0.1-0.1,0.3-0.6,0.3-0.9h3.7
	C11.1,128.1,11,128.9,10.7,129.5z"/>
<path class="st2" d="M16.2,132.2c-2.8,0-4.7-1.7-4.7-4.4c0-2.8,2-4.4,4.7-4.4c2.7,0,4.7,1.7,4.7,4.4
	C20.9,130.6,18.9,132.2,16.2,132.2z M16.2,125.8c-1,0-1.1,1.4-1.1,2.1s0.1,2,1.1,2s1.1-1.4,1.1-2C17.4,127.1,17.2,125.8,16.2,125.8z
	"/>
<path class="st2" d="M42.3,131.8v-4.4c0-0.7-0.3-1.1-0.9-1.1c-0.6,0-0.9,0.6-0.9,1.1s0,4.4,0,4.4H37v-4.4c0-0.7-0.3-1.1-0.9-1.1
	c-0.6,0-1,0.4-1,1.1c0,0.7,0,4.4,0,4.4h-3.4v-4.4c0-0.7-0.3-1.1-0.9-1.1s-1,0.4-1,1.1c0,0.7,0,4.4,0,4.4h-3.4v-4.4
	c0-0.7-0.3-1.1-0.9-1.1c-0.6,0-1,0.4-1,1.1c0,0.7,0,4.4,0,4.4h-3.4v-8h3.1l0.3,0.7c0.6-0.7,1.4-1.1,2.6-1.1c1.1,0,2.3,0.6,2.6,1.3
	c0.4-0.7,1.6-1.3,2.7-1.3c1.3,0,2.1,0.7,2.6,1.3c0.4-0.6,1.4-1.3,2.6-1.3c1.4,0,2.1,0.6,2.7,1.3c0.9-1.1,1.9-1.3,2.6-1.3
	c2.4,0,3,1.6,3,3.4s0,5,0,5H42.3z"/>
<path class="st2" d="M50.8,132.2c-2.8,0-4.7-1.7-4.7-4.4c0-2.8,2-4.4,4.7-4.4c2.7,0,4.7,1.7,4.7,4.4
	C55.5,130.6,53.5,132.2,50.8,132.2z M50.8,125.8c-1,0-1.1,1.4-1.1,2.1s0.1,2,1.1,2s1.1-1.4,1.1-2C52,127.1,51.8,125.8,50.8,125.8z"
	/>
<path class="st2" d="M61.4,131.8v-4.4c0-0.7-0.3-1.1-0.9-1.1c-0.6,0-1,0.4-1,1.1c0,0.7,0,4.4,0,4.4h-3.6v-8h3.1v0.9
	c0.7-0.9,1.6-1.3,2.6-1.3c1.1,0,3,0.7,3,2.7v5.7H61.4z"/>
<path class="st2" d="M76.4,131.8h-3.6c0,0-0.4-1.4-0.7-2.3c-0.3-1.1-0.3-1.6-0.3-1.6s0,0.4-0.3,1.6c-0.1,0.9-0.7,2.3-0.7,2.3h-3.7
	l-2.4-8h3.7c0,0,0.4,1.4,0.6,2.1c0.3,0.9,0.3,1.4,0.3,1.4s0-0.6,0.3-1.4c0.1-0.9,0.6-2.1,0.6-2.1h3.1c0,0,0.4,1.3,0.6,2.1
	c0.3,1,0.3,1.4,0.3,1.4s0-0.4,0.3-1.4c0.1-0.7,0.6-2.1,0.6-2.1h3.6L76.4,131.8z"/>
<path class="st2" d="M82,128.3c0,0.9,0.4,1.6,1.3,1.6c0.4,0,1-0.3,1.1-0.7h3.3c0,0.3-0.3,0.7-0.4,1c-0.9,1.3-2.6,2-4.1,2
	c-3,0-4.7-1.7-4.8-4.3c0-2.3,1.3-4.6,4.6-4.6c3.1,0,5,1.9,5,5H82z M83.3,125.3c-0.7,0-1.1,0.6-1.1,1.3h2.3
	C84.3,125.9,83.8,125.3,83.3,125.3z"/>
<path class="st2" d="M94,131.8l-0.1-0.7c-0.6,0.6-1.9,1.1-2.7,1.1c-0.6,0-1.9-0.1-2.6-1c-0.6-0.7-0.6-2-0.1-2.8
	c0.7-1,2.1-1.4,3.7-1.7c0.6,0,1.3-0.3,1.3-0.7s-0.1-0.7-0.7-0.7s-1,0.4-1,1h-3.3v-0.1c0.3-1.9,1.7-2.8,4.1-2.8c4,0,4.4,1.4,4.4,3.8
	v2.3c0,1.6,0.1,1.9,0.3,2.6H94V131.8z M93.5,128.2c0,0-0.4,0.1-0.9,0.3c-0.3,0.1-1,0.1-1,0.7c0,0.3,0.3,0.6,0.7,0.6
	c0.9,0,1.1-0.6,1.1-1.3C93.5,128.3,93.5,128.2,93.5,128.2z"/>
<path class="st2" d="M98.1,131.8v-11.2h3.4v11.2H98.1z"/>
<path class="st2" d="M105.9,132c-2.3,0-2.8-1.1-2.8-3.3v-2.8h-1v-2.3h1v-3.3h3.4v3.3h1.4v2.3h-1.4v2.1c0,0.7,0.3,1.3,1,1.3
	c0.1,0,0.3,0,0.4,0c0.1,0,0.1,0,0.1,0v2.3C107.3,131.9,106.6,132,105.9,132z"/>
<path class="st2" d="M117.4,131.8H114v-4.4c0-0.7-0.3-1.1-0.9-1.1s-0.9,0.6-0.9,1.1s0,4.4,0,4.4h-3.7v-11.2h3.3v4.1
	c0.6-0.7,1.6-1.3,2.6-1.3c1.1,0,3,0.7,3,2.7C117.4,126.1,117.4,131.8,117.4,131.8z"/>
<g>
	<path class="st2" d="M125.4,125.8c1-0.3,1.7-1.1,1.7-2.4c0-1.9-1.3-2.8-3.4-2.8h-4.3h-0.1v11.2h4.4c2.4,0,3.8-1.1,3.8-3.3
		C127.5,126.8,126.3,126.1,125.4,125.8z M120.1,126.3c0.1,0,3.4,0,3.4,0c1.1,0,2.8,0.3,2.8,2.1c0,2-1.9,2.3-2.8,2.3c0,0-3.3,0-3.4,0
		C120.1,130.8,120.1,126.6,120.1,126.3z M123.7,125.5c0,0-3.3,0-3.4,0c0-0.1,0-3.8,0-4.1c0.1,0,3.4,0,3.4,0c1,0,2.6,0.3,2.6,2
		C126,124.8,125.3,125.5,123.7,125.5z"/>
	<path class="st2" d="M135.2,130.9L135.2,130.9h-0.4c-0.1,0-0.4-0.1-0.4-0.7v-4.3c0-1.6-1-2.3-2.8-2.3c-1.9,0-2.8,0.9-3,2.6v0.1h1
		v-0.1c0-0.4,0.1-0.7,0.4-1c0.3-0.4,1-0.7,1.7-0.7c1.9,0,2,1.1,2,1.4v0.3c0,0.6-0.3,0.7-0.9,0.7c-1.1,0.1-2.6,0.4-3.4,0.9
		c-0.3,0.1-0.7,0.4-0.9,0.7c-0.3,0.6-0.4,1.6,0,2.3c0.4,0.9,1.3,1.3,2.4,1.3c1.3,0,2.1-0.6,2.7-1.6v0.1c0,0.9,0.4,1.1,1.1,1.1
		l0.6-0.1l0,0v-0.7H135.2z M133.4,127.5c0,0.1,0,1.1,0,1.1c0,0.7-0.4,2.4-2.7,2.4c-1,0-1.7-0.6-1.7-1.6c0-1.1,0.9-1.4,1.9-1.7
		C131.5,127.8,132.7,127.6,133.4,127.5z"/>
	<path class="st2" d="M139.2,123.5c-1.1,0-2,0.6-2.6,1.4c0-0.4,0-1.3,0-1.3h-0.9v8.1h0.9v-4.4c0-1.7,1-3,2.4-3c1.3,0,2,0.7,2,2.4v5
		h0.9v-5C142.1,125.9,142.1,123.5,139.2,123.5z"/>
	<path class="st2" d="M146.2,126.8c0.1-0.1,3.1-3,3.1-3H148c0,0-3.7,3.6-4,3.8c0-0.4,0-7.1,0-7.1h-0.1h-0.9v11.2h0.9v-3
		c0,0,1.3-1.1,1.4-1.3c0.1,0.1,3,4.3,3,4.3h1.1C149.6,131.8,146.3,126.9,146.2,126.8z"/>
</g>
</svg>
