<?xml version="1.0" encoding="utf-8"?>
<!-- Generator: Adobe Illustrator 21.0.2, SVG Export Plug-In . SVG Version: 6.00 Build 0)  -->
<svg version="1.1" id="Layer_1" xmlns="http://www.w3.org/2000/svg" xmlns:xlink="http://www.w3.org/1999/xlink" x="0px" y="0px"
	 viewBox="0 0 222.5 165.7" style="enable-background:new 0 0 222.5 165.7;" xml:space="preserve">
<g>
	<path d="M132.3,28.4c12.9,14.5,20.9,33.8,20.9,54.5c0,20.7-7.9,40-20.9,54.5c5.7,2.3,12.9,3.4,19.7,3.4c21.6,0,38.8-11.1,49-27.2
		l21.3,12.5c-14.8,23.8-40.9,39.7-70.4,39.7c-14.8,0-28.8-4.1-40.9-10.9c-12.3,6.8-26.1,10.9-40.9,10.9c-29.5,0-55.6-15.9-70.4-39.7
		l21.3-12.5c10.2,16.1,27.5,27.2,49,27.2c6.8,0,14.1-1.1,19.7-3.4c-12.9-14.5-20.9-33.8-20.9-54.5c0-20.7,7.9-40,20.9-54.5
		C84.4,26.1,77.2,25,70.4,25c-21.6,0-38.8,11.1-49,27.2L0,39.7C14.8,15.9,40.9,0,70.4,0C85.1,0,99,4.1,111.2,11.1
		c12-7,26.1-11.1,40.9-11.1c29.5,0,55.6,15.9,70.4,39.7l-21.3,12.5c-10.2-16.1-27.5-27.2-49-27.2C145.3,25,138,26.1,132.3,28.4z
		 M111.2,41.5c-10.4,10.4-17,25-17,41.3s6.6,30.9,17,41.3c10.4-10.4,17-25,17-41.3S121.7,52,111.2,41.5z"/>
</g>
</svg>
