<?xml version="1.0" encoding="utf-8"?>
<!-- Generator: Adobe Illustrator 21.0.2, SVG Export Plug-In . SVG Version: 6.00 Build 0)  -->
<svg version="1.1" id="Layer_1" xmlns="http://www.w3.org/2000/svg" xmlns:xlink="http://www.w3.org/1999/xlink" x="0px" y="0px"
	 viewBox="0 0 2500 2500" enable-background="new 0 0 2500 2500" xml:space="preserve">
<path d="M1249.999,0C560.752,0,0.015,560.745,0.015,1250.004S560.752,2500,1249.999,2500
	c689.249,0,1249.986-560.737,1249.986-1249.996C2499.987,560.745,1939.247,0,1249.999,0z M1249.999,2338.1
	c-599.977,0-1088.084-488.119-1088.084-1088.096c0-599.987,488.109-1088.104,1088.084-1088.104
	c599.967,0,1088.086,488.119,1088.086,1088.104C2338.085,1849.979,1849.969,2338.1,1249.999,2338.1L1249.999,2338.1z
	 M1434.165,829.135H819.233l-93.299,149.941h614.221L1434.165,829.135L1434.165,829.135z M1559.833,830.565l-375.923,598.59H766.927
	l96.203-150.066h249.921l95.466-149.999H630.746l-95.449,149.999h136.875l-189.908,299.617h792.538l292.728-461.649l106.733,162.03
	h-96.24l-91.145,150.069h284.995l98.96,149.55h181.799L1559.833,830.565L1559.833,830.565z"/>
</svg>
