<?xml version="1.0" encoding="utf-8"?>
<!-- Generator: Adobe Illustrator 21.1.0, SVG Export Plug-In . SVG Version: 6.00 Build 0)  -->
<svg version="1.1" id="Layer_1" xmlns="http://www.w3.org/2000/svg" xmlns:xlink="http://www.w3.org/1999/xlink" x="0px" y="0px"
	 viewBox="0 0 175.754 104.818" enable-background="new 0 0 175.754 104.818" xml:space="preserve">
<g>
	<circle fill="none" cx="172.327" cy="52.413" r="0"/>
	<path d="M168.992,35.378c-0.372-2.606-2.174-9.645-10.85-11.739c-1.366-2.065-5.725-7.621-12.921-7.276
		c-1.611-2.05-6.055-6.445-13.807-5.094c-1.777-1.6-6.401-4.782-13.749-3.109c-2.257-2.097-8.795-6.246-20.053,1.638v0.007
		c-0.683,0.48-1.488,0.843-2.248,1.098c0.011-0.059,0.022-0.118,0.033-0.176V10.72c0.052-0.283,0.085-0.479,0.102-0.599
		c0.068-0.475,0.102-0.867,0.102-1.069V9.049C95.6,6.61,94.782,4.401,93.49,2.79C92.104,1.061,90.168,0,88.052,0h-0.001
		c-1.793,0.002-3.458,0.763-4.774,2.047c-0.003,0.002-0.005,0.005-0.007,0.007c-0.001,0-0.001,0.001-0.001,0.001
		c-0.369,0.362-0.706,0.758-1.004,1.182c-0.298,0.423-0.566,0.884-0.798,1.376c-0.617,1.306-0.976,2.82-0.977,4.432
		c0,0.002,0,0.005,0,0.007c0,0.289,0.075,1.027,0.232,1.849c-0.758-0.256-1.563-0.621-2.25-1.103
		C67.217,1.913,60.68,6.06,58.424,8.158c-7.348-1.673-11.974,1.506-13.752,3.105c-7.749-1.353-12.197,3.04-13.81,5.091
		c-7.191-0.343-11.548,5.211-12.914,7.277c-8.676,2.09-10.48,9.13-10.852,11.737c-9.683,6.918-7.121,14.328-5.662,17.077
		c-1.463,2.737-4.015,10.085,5.657,17c0.373,2.606,2.178,9.646,10.852,11.738c1.367,2.066,5.725,7.62,12.916,7.278
		c1.613,2.048,6.06,6.433,13.806,5.089c1.777,1.6,6.402,4.785,13.755,3.104c2.255,2.099,8.792,6.248,20.047-1.637
		c0.687-0.48,1.491-0.845,2.249-1.1c-0.157,0.817-0.234,1.558-0.234,1.848v0.001v0.003c0.001,2.439,0.819,4.647,2.113,6.259
		c1.389,1.729,3.329,2.79,5.45,2.79h0.001c2.568,0,4.874-1.564,6.245-3.985c0.294-0.518,0.541-1.062,0.734-1.622
		c0.188-0.543,0.335-1.14,0.435-1.785c0.088-0.568,0.135-1.124,0.135-1.661c0-0.277-0.076-1.014-0.236-1.849
		c0.758,0.256,1.562,0.62,2.247,1.1c11.255,7.888,17.794,3.741,20.051,1.644c7.35,1.678,11.974-1.507,13.751-3.108
		c7.749,1.353,12.195-3.037,13.806-5.086c7.197,0.342,11.556-5.211,12.922-7.277c8.676-2.094,10.48-9.129,10.852-11.735
		c9.222-6.68,6.763-14.328,5.464-17.041C175.753,49.702,178.215,42.056,168.992,35.378z M172.328,52.413L172.328,52.413
		c0.006,0.01,5.765,8.666-5.119,16.002c0,0-0.22,9.153-10.247,11.115c0,0-4.363,8.069-12.653,6.981c0,0-4.142,7.186-13.516,5.007
		c0,0-4.579,5.671-13.737,3.054c0,0-5.635,7.832-18.372-1.094c-2.513-1.761-6.364-2.228-5.992-1.666
		c0.707,1.095,1.028,3.464,1.028,3.954c-0.003,4.003-2.623,7.176-5.673,7.176c-3.062,0-5.687-3.173-5.687-7.176
		c0-0.491,0.322-2.86,1.024-3.949c0.375-0.57-3.473-0.1-5.992,1.661c-12.737,8.923-18.369,1.088-18.369,1.088
		c-9.16,2.62-13.741-3.049-13.741-3.049c-9.371,2.17-13.517-5.01-13.517-5.01c-8.281,1.086-12.645-6.983-12.645-6.983
		C9.092,77.563,8.871,68.404,8.871,68.404c-11.545-7.733-5.247-15.957-5.247-15.957s-6.296-8.312,5.252-16.039
		c0,0,0.219-9.16,10.248-11.117c0,0,4.362-8.07,12.645-6.982c0,0,4.146-7.191,13.517-5.012c0,0,4.583-5.663,13.741-3.051
		c0,0,5.633-7.831,18.368,1.091c2.52,1.766,6.368,2.236,5.995,1.661c-0.702-1.089-1.026-3.459-1.023-3.947
		c0-4.006,2.623-7.173,5.685-7.176c3.05,0,5.674,3.172,5.674,7.176c-0.001,0.488-0.319,2.857-1.028,3.95
		c-0.371,0.569,3.478,0.101,5.992-1.665c12.738-8.92,18.373-1.089,18.373-1.089c9.156-2.61,13.737,3.056,13.737,3.056
		c9.376-2.177,13.515,5.016,13.515,5.016c8.289-1.091,12.652,6.98,12.652,6.98c10.028,1.963,10.245,11.119,10.245,11.119
		C178.096,43.751,172.334,52.403,172.328,52.413L172.328,52.413z"/>
	<path fill="#FFFFFF" d="M90.794,91.716c0.004-0.134,0.018-0.27,0.05-0.407c0.188-0.813,0.739-1.295,1.545-1.485
		c-1.558,0.173-2.138,0.956-2.161,0.914C90.353,90.972,90.563,91.306,90.794,91.716z"/>
	<path fill="#FFFFFF" d="M110.437,95.867c1.219-0.077,2.204-0.382,2.972-0.753c-0.601,0.208-1.225,0.371-1.865,0.536
		C111.167,95.749,110.799,95.817,110.437,95.867z"/>
	<path fill="#FFFFFF" d="M99.764,12.872c-0.008,0.005-0.016,0.01-0.024,0.015c0.008-0.005,0.017-0.009,0.025-0.014L99.764,12.872z"
		/>
	<path fill="#FFFFFF" d="M85.701,99.881c0.663,0.732,1.485,1.187,2.345,1.188h0.001c0.739,0,1.453-0.328,2.06-0.888
		c-0.582,0.428-1.277,0.664-2.01,0.682C87.224,100.84,86.376,100.499,85.701,99.881z"/>
	<path fill="#FFFFFF" d="M83.406,89.762c0.969,0.134,1.618,0.645,1.827,1.55c0.025,0.108,0.035,0.215,0.043,0.321
		c0.242-0.404,0.466-0.723,0.609-0.925C85.93,90.648,85.207,89.806,83.406,89.762z"/>
	<path fill="#FFFFFF" d="M135.895,15.223c3.172,0.75,5.77,2.658,7.186,5.543c1.986-0.232,5.077-0.312,7.474,0.952
		c3.751,1.98,4.284,5.884,5.376,6.214c6.094,1.848,7.83,2.908,9.414,8.857l-0.01-0.311c-0.001-0.022-0.181-7.666-8.728-9.338
		l-0.856-0.168l-0.426-0.771c-0.011-0.02-3.759-6.95-10.769-6.027l-1.219,0.161l-0.628-1.055c-0.01-0.017-3.459-6.017-11.492-4.152
		l-1.123,0.261l-0.738-0.891c-0.008-0.011-2.286-2.805-6.984-3.039c2.829,0.274,4.001,0.884,7.675,3.958
		C130.25,15.595,133.957,14.758,135.895,15.223z"/>
	<path fill="#FFFFFF" d="M88.012,13.07c0.735,0.072,1.373-1.799,1.587-2.898c0.275-1.427-0.386-3.31-1.58-3.304
		c-1.336-0.002-1.87,1.872-1.591,3.304C86.64,11.27,87.32,13.121,88.012,13.07z"/>
	<path fill="#FFFFFF" d="M95.013,14.949c0.547-0.138,1.076-0.324,1.597-0.527c-1.031,0.351-2.008,0.562-2.727,0.641
		c-0.421,0.046-0.8,0.052-1.103,0.02h-0.007c-1.025-0.109-1.703-0.628-1.923-1.566c-0.019-0.083-0.024-0.165-0.033-0.247
		c-0.237,0.422-0.454,0.764-0.581,1.002C90.268,14.214,91.44,15.854,95.013,14.949z"/>
	<path fill="#FFFFFF" d="M88.103,4.142c1.097,0.029,2.11,0.531,2.778,1.458c-0.1-0.157-0.193-0.324-0.306-0.464
		c-0.687-0.857-1.588-1.383-2.521-1.383h-0.001c-0.781,0.001-1.537,0.362-2.159,0.971l-0.007,0.007
		c-0.194,0.19-0.381,0.412-0.557,0.662c-0.178,0.254-0.338,0.528-0.475,0.819c-0.026,0.056-0.046,0.118-0.071,0.175
		c0.047-0.092,0.084-0.184,0.137-0.276C85.625,4.864,86.845,4.175,88.103,4.142z"/>
	<path fill="#FFFFFF" d="M111.553,9.358c1.032,0.269,2.026,0.529,2.938,0.994c-1.921-1.406-6.535-3.188-14.672,2.49
		C103.531,10.722,106.99,8.166,111.553,9.358z"/>
	<path fill="#FFFFFF" d="M72.167,10.438c1.008,0.496,1.996,1.078,2.991,1.663C74.097,11.422,73.102,10.876,72.167,10.438z"/>
	<path fill="#FFFFFF" d="M155.926,77.086c-1.09,0.326-1.624,4.241-5.376,6.214c-2.399,1.261-5.487,1.184-7.475,0.953
		c-1.416,2.882-4.012,4.789-7.187,5.543c-1.373,0.324-3.628,0.002-4.902-0.154l0.227,0.053c8.032,1.867,11.483-4.126,11.493-4.143
		l0.628-1.054l1.219,0.16c7.011,0.92,10.759-6.008,10.77-6.028l0.426-0.771l0.856-0.167c8.547-1.673,8.729-9.312,8.73-9.334
		l0.004-0.118C163.753,74.179,162.019,75.242,155.926,77.086z"/>
	<path fill="#FFFFFF" d="M166.163,37.973l-0.622-0.418c0.021,0.083,0.041,0.156,0.062,0.24c0.095,0.38,2.72,2.298,3.949,3.882
		c2.343,3.024,2.374,5.536,1.224,8.69c-0.266,0.742-0.529,1.693-0.636,2.144c0.103,0.445,0.37,1.401,0.633,2.14
		c1.147,3.16,1.119,5.67-1.225,8.689c-1.228,1.587-3.857,3.49-3.948,3.884c-0.002,0.008-0.004,0.014-0.006,0.022l0.567-0.385
		c9.352-6.302,4.611-13.409,4.598-13.429l1.568-1.019l0,0l0,0l-1.568-1.019C170.772,51.374,175.515,44.271,166.163,37.973z"/>
	<path fill="#FFFFFF" d="M68.809,9.248c-5.713-1.32-8.195,2-8.274,2.105c1.32-1.032,2.549-1.595,4.1-1.997
		C66.129,8.967,67.503,8.986,68.809,9.248z"/>
	<path fill="#FFFFFF" d="M85.896,14.296c-0.148-0.207-0.382-0.538-0.632-0.959c-0.009,0.059-0.01,0.118-0.024,0.178
		c-0.22,0.938-0.897,1.457-1.924,1.567c-0.305,0.033-0.687,0.027-1.112-0.02c-0.516-0.057-1.167-0.184-1.872-0.378
		c0.28,0.095,0.56,0.189,0.847,0.265C84.637,15.872,85.954,14.375,85.896,14.296z"/>
	<path fill="#FFFFFF" d="M129.351,90.326l0.437-0.527c-1.795,1.493-2.982,2.377-4.085,2.914
		C128.15,91.812,129.345,90.334,129.351,90.326z"/>
	<path fill="#FFFFFF" d="M88.027,98.36c-0.007,0-0.013-0.003-0.02-0.003c-0.007,0-0.013,0.004-0.021,0.003H88.027z"/>
	<path fill="#FFFFFF" d="M61.161,94.117c0.768,0.674,2.257,1.633,4.587,1.753c-0.367-0.05-0.741-0.12-1.123-0.22
		C63.325,95.312,62.252,94.861,61.161,94.117z"/>
	<path fill="#FFFFFF" d="M46.111,89.582l0.615,0.741c0.006,0.008,1.195,1.476,3.628,2.377c-1.122-0.584-2.341-1.542-4.215-3.111
		C46.134,89.585,46.119,89.584,46.111,89.582z"/>
	<path fill="#FFFFFF" d="M6.636,63.33c-2.346-3.017-2.374-5.529-1.227-8.686c0.275-0.742,0.531-1.697,0.636-2.142
		c-0.105-0.451-0.363-1.403-0.636-2.144c-1.145-3.154-1.117-5.668,1.227-8.69c1.23-1.583,3.857-3.499,3.948-3.883
		c0.028-0.114,0.056-0.214,0.084-0.325l-0.751,0.502c-9.906,6.628-4.798,13.36-4.784,13.379l0.817,1.112l-0.825,1.109
		c-0.014,0.019-5.109,6.661,4.785,13.289l0.697,0.468c-0.009-0.036-0.018-0.067-0.026-0.103C10.491,66.825,7.863,64.92,6.636,63.33z
		"/>
	<path fill="#FFFFFF" d="M40.292,89.792c-3.174-0.757-5.771-2.663-7.185-5.547c-1.992,0.232-5.077,0.31-7.476-0.947
		c-3.752-1.981-4.289-5.893-5.371-6.219c-6.241-1.885-7.913-2.966-9.533-9.295l0.019,0.563c0.001,0.022,0.184,7.667,8.732,9.338
		l0.856,0.167l0.427,0.771c0.011,0.02,3.76,6.949,10.762,6.03l1.219-0.16l0.628,1.054c0.01,0.017,3.465,6.005,11.494,4.146
		l0.13-0.03C43.694,89.825,41.595,90.101,40.292,89.792z"/>
	<path fill="#FFFFFF" d="M94.291,90.838c0,0.001,0.001,0.003,0.002,0.004c0.001,0.001,0.002,0.003,0.003,0.004l-0.003-0.005
		c-0.015-0.026-0.029-0.051-0.036-0.062l0.012,0.024C94.276,90.814,94.283,90.826,94.291,90.838z"/>
	<path fill="#FFFFFF" d="M94.293,90.841l0.003,0.005C94.295,90.845,94.294,90.843,94.293,90.841c-0.001,0-0.002-0.002-0.002-0.003
		c-0.008-0.012-0.015-0.024-0.022-0.035l-0.012-0.024C94.264,90.79,94.278,90.815,94.293,90.841z"/>
	<path d="M87.994,6.864c0.009,0,0.016,0.004,0.025,0.004c0.005,0,0.009-0.002,0.014-0.002L87.994,6.864z"/>
	<g>
		<path fill="none" d="M88.012,13.07c0.735,0.072,1.373-1.799,1.587-2.898c0.275-1.427-0.386-3.31-1.58-3.304
			c-1.336-0.002-1.87,1.872-1.591,3.304C86.64,11.27,87.32,13.121,88.012,13.07z"/>
		<path fill="none" d="M87.994,6.864c0.009,0,0.016,0.004,0.025,0.004c0.005,0,0.009-0.002,0.014-0.002L87.994,6.864z"/>
		<path fill="none" d="M88.027,98.36c-0.007,0-0.013-0.003-0.02-0.003c-0.007,0-0.013,0.004-0.021,0.003H88.027z"/>
		<path fill="none" d="M88.006,92.157c-0.015,0.026-1.234,0.36-1.584,2.902c-0.198,1.434,0.254,3.293,1.585,3.298
			c1.196,0.018,1.731-1.856,1.586-3.299C89.298,92.103,88,92.164,88.006,92.157z"/>
		<path fill="none" d="M163.972,39.692c-1.27-4.59-4.751-8.998-9.663-9.977c-2.542-4.052-7.31-7.547-12.163-6.858
			c-3.09-3.745-7.864-6.243-12.782-4.986c-3.412-3.746-8.784-4.369-13.407-3.123c-2.168-2.397-7.979-3.998-11.115-2.285
			c-5.901,3.22-10.238,8.351-16.827,3.84c-6.607,4.508-10.942-0.621-16.848-3.844c-3.129-1.71-8.947-0.111-11.112,2.286
			c-4.629-1.25-9.996-0.623-13.409,3.121c-4.922-1.257-9.689,1.24-12.781,4.986c-4.856-0.692-9.622,2.803-12.165,6.855
			c-4.91,0.98-8.398,5.387-9.664,9.979c-4.09,2.451-6.649,8.213-4.377,12.925c-2.27,4.714,0.287,10.476,4.376,12.926
			c1.266,4.59,4.755,9.002,9.662,9.976c2.546,4.057,7.306,7.552,12.164,6.859c3.091,3.752,7.86,6.246,12.78,4.992
			c3.414,3.737,8.779,4.365,13.408,3.121c2.164,2.396,7.984,3.994,11.113,2.282c5.905-3.222,10.243-8.351,16.848-3.834
			c6.589-4.516,10.924,0.614,16.827,3.838c3.138,1.71,8.947,0.109,11.114-2.283c4.624,1.245,9.996,0.621,13.407-3.118
			c4.918,1.254,9.692-1.242,12.785-4.992c4.855,0.692,9.622-2.798,12.165-6.855c4.905-0.975,8.393-5.388,9.662-9.982
			c4.09-2.447,6.645-8.204,4.381-12.921C170.616,47.905,168.06,42.147,163.972,39.692z"/>
		<g>
			<path fill="none" d="M88.006,92.157c-0.015,0.026-1.234,0.36-1.584,2.902c-0.198,1.434,0.254,3.293,1.585,3.298
				c1.196,0.018,1.731-1.856,1.586-3.299C89.298,92.103,88,92.164,88.006,92.157z"/>
			<path fill="none" d="M88.027,98.36c-0.007,0-0.013-0.003-0.02-0.003c-0.007,0-0.013,0.004-0.021,0.003H88.027z"/>
			<path fill="none" d="M87.994,6.864c0.009,0,0.016,0.004,0.025,0.004c0.005,0,0.009-0.002,0.014-0.002L87.994,6.864z"/>
			<path fill="none" d="M88.012,13.07c0.735,0.072,1.373-1.799,1.587-2.898c0.275-1.427-0.386-3.31-1.58-3.304
				c-1.336-0.002-1.87,1.872-1.591,3.304C86.64,11.27,87.32,13.121,88.012,13.07z"/>
			<path fill="none" d="M163.972,39.692c-1.27-4.59-4.751-8.998-9.663-9.977c-2.542-4.052-7.31-7.547-12.163-6.858
				c-3.09-3.745-7.864-6.243-12.782-4.986c-3.412-3.746-8.784-4.369-13.407-3.123c-2.168-2.397-7.979-3.998-11.115-2.285
				c-5.901,3.22-10.238,8.351-16.827,3.84c-6.607,4.508-10.942-0.621-16.848-3.844c-3.129-1.71-8.947-0.111-11.112,2.286
				c-4.629-1.25-9.996-0.623-13.409,3.121c-4.922-1.257-9.689,1.24-12.781,4.986c-4.856-0.692-9.622,2.803-12.165,6.855
				c-4.91,0.98-8.398,5.387-9.664,9.979c-4.09,2.451-6.649,8.213-4.377,12.925c-2.27,4.714,0.287,10.476,4.376,12.926
				c1.266,4.59,4.755,9.002,9.662,9.976c2.546,4.057,7.306,7.552,12.164,6.859c3.091,3.752,7.86,6.246,12.78,4.992
				c3.414,3.737,8.779,4.365,13.408,3.121c2.164,2.396,7.984,3.994,11.113,2.282c5.905-3.222,10.243-8.351,16.848-3.834
				c6.589-4.516,10.924,0.614,16.827,3.838c3.138,1.71,8.947,0.109,11.114-2.283c4.624,1.245,9.996,0.621,13.407-3.118
				c4.918,1.254,9.692-1.242,12.785-4.992c4.855,0.692,9.622-2.798,12.165-6.855c4.905-0.975,8.393-5.388,9.662-9.982
				c4.09-2.447,6.645-8.204,4.381-12.921C170.616,47.905,168.06,42.147,163.972,39.692z"/>
			<g>
				<path fill="none" d="M88.027,98.36c-0.007,0-0.013-0.003-0.02-0.003c-0.007,0-0.013,0.004-0.021,0.003H88.027z"/>
				<path fill="none" d="M87.994,6.864c0.009,0,0.016,0.004,0.025,0.004c0.005,0,0.009-0.002,0.014-0.002L87.994,6.864z"/>
				<path fill="none" d="M88.006,92.157c-0.015,0.026-1.234,0.36-1.584,2.902c-0.198,1.434,0.254,3.293,1.585,3.298
					c1.196,0.018,1.731-1.856,1.586-3.299C89.298,92.103,88,92.164,88.006,92.157z"/>
				<path fill="none" d="M88.012,13.07c0.735,0.072,1.373-1.799,1.587-2.898c0.275-1.427-0.386-3.31-1.58-3.304
					c-1.336-0.002-1.87,1.872-1.591,3.304C86.64,11.27,87.32,13.121,88.012,13.07z"/>
				<path fill="none" d="M163.972,39.692c-1.27-4.59-4.751-8.998-9.663-9.977c-2.542-4.052-7.31-7.547-12.163-6.858
					c-3.09-3.745-7.864-6.243-12.782-4.986c-3.412-3.746-8.784-4.369-13.407-3.123c-2.168-2.397-7.979-3.998-11.115-2.285
					c-5.901,3.22-10.238,8.351-16.827,3.84c-6.607,4.508-10.942-0.621-16.848-3.844c-3.129-1.71-8.947-0.111-11.112,2.286
					c-4.629-1.25-9.996-0.623-13.409,3.121c-4.922-1.257-9.689,1.24-12.781,4.986c-4.856-0.692-9.622,2.803-12.165,6.855
					c-4.91,0.98-8.398,5.387-9.664,9.979c-4.09,2.451-6.649,8.213-4.377,12.925c-2.27,4.714,0.287,10.476,4.376,12.926
					c1.266,4.59,4.755,9.002,9.662,9.976c2.546,4.057,7.306,7.552,12.164,6.859c3.091,3.752,7.86,6.246,12.78,4.992
					c3.414,3.737,8.779,4.365,13.408,3.121c2.164,2.396,7.984,3.994,11.113,2.282c5.905-3.222,10.243-8.351,16.848-3.834
					c6.589-4.516,10.924,0.614,16.827,3.838c3.138,1.71,8.947,0.109,11.114-2.283c4.624,1.245,9.996,0.621,13.407-3.118
					c4.918,1.254,9.692-1.242,12.785-4.992c4.855,0.692,9.622-2.798,12.165-6.855c4.905-0.975,8.393-5.388,9.662-9.982
					c4.09-2.447,6.645-8.204,4.381-12.921C170.616,47.905,168.06,42.147,163.972,39.692z"/>
				<path d="M170.14,52.511c0.107-0.451,0.37-1.402,0.636-2.144c1.15-3.154,1.119-5.666-1.224-8.69
					c-1.229-1.584-3.854-3.502-3.949-3.882c-0.021-0.084-0.041-0.157-0.062-0.24l-0.175-0.118l-0.021-0.648
					c-1.584-5.949-3.32-7.01-9.414-8.857c-1.092-0.33-1.625-4.234-5.376-6.214c-2.397-1.264-5.488-1.184-7.474-0.952
					c-1.416-2.885-4.014-4.793-7.186-5.543c-1.938-0.465-5.645,0.372-5.848,0.194c-3.675-3.075-4.847-3.684-7.675-3.958
					c-1.388-0.069-2.978,0.074-4.796,0.592l-1.239,0.353l-0.776-1.042c-0.004-0.005-0.348-0.481-1.07-1.01
					c-0.912-0.466-1.907-0.725-2.938-0.994c-4.563-1.192-8.022,1.364-11.734,3.485c-0.017,0.012-0.034,0.022-0.051,0.034
					l-0.003-0.004c-0.008,0.005-0.017,0.009-0.025,0.014c-0.957,0.667-2.071,1.174-3.129,1.534
					c-0.522,0.204-1.051,0.389-1.597,0.527c-3.573,0.905-4.745-0.735-4.777-0.677c0.127-0.238,0.344-0.58,0.581-1.002
					c-0.049-0.444,0.045-0.876,0.312-1.286c0.19-0.292,0.357-0.855,0.484-1.415c0.041-0.181,0.076-0.354,0.106-0.515h0.001
					c0.017-0.095,0.043-0.257,0.072-0.46c0.039-0.271,0.058-0.465,0.058-0.541V9.05c0-1.145-0.27-2.188-0.72-3.049
					c-0.055-0.101-0.114-0.196-0.176-0.289c-0.025-0.037-0.048-0.076-0.073-0.112c-0.667-0.928-1.68-1.43-2.778-1.458
					c-1.258,0.033-2.478,0.722-3.182,1.969c-0.052,0.093-0.09,0.184-0.137,0.276c-0.339,0.78-0.539,1.683-0.539,2.666V9.06
					c-0.001,0.209,0.098,0.97,0.308,1.786c0.045,0.177,0.095,0.352,0.149,0.515c0.059,0.178,0.111,0.321,0.152,0.414
					c0.034,0.076,0.072,0.148,0.114,0.213l-0.002,0.001c0.276,0.43,0.366,0.882,0.298,1.348c0.25,0.421,0.484,0.751,0.632,0.959
					c0.058,0.079-1.259,1.576-4.717,0.653c-0.287-0.076-0.567-0.17-0.847-0.265c-1.3-0.358-2.791-0.951-4.013-1.807
					c-0.396-0.277-0.781-0.533-1.16-0.775c-0.995-0.586-1.984-1.167-2.991-1.663c-1.225-0.573-2.343-0.955-3.359-1.19
					c-1.306-0.262-2.679-0.281-4.174,0.108c-1.551,0.403-2.78,0.965-4.1,1.997c-0.001,0.002-0.005,0.006-0.005,0.006l-0.776,1.042
					l-1.239-0.353c-0.85-0.242-1.643-0.391-2.399-0.489c-0.244-0.031-0.486-0.057-0.726-0.078c-0.298-0.026-0.588-0.044-0.863-0.049
					c-0.028-0.001-0.057-0.002-0.085-0.003c-0.273-0.002-0.53,0.014-0.789,0.028c-2.717,0.182-3.909,0.944-7.511,3.956
					c-0.205,0.177-3.908-0.66-5.845-0.196c-3.177,0.751-5.771,2.659-7.184,5.543c-1.994-0.231-5.077-0.314-7.478,0.95
					c-3.751,1.981-4.289,5.883-5.372,6.215c-6.245,1.891-7.917,2.964-9.536,9.3l-0.007,0.198l-0.053,0.036
					c-0.028,0.111-0.056,0.211-0.084,0.325c-0.091,0.384-2.718,2.3-3.948,3.883c-2.344,3.022-2.372,5.536-1.227,8.69
					c0.273,0.741,0.531,1.693,0.636,2.144c-0.105,0.445-0.361,1.4-0.636,2.142c-1.147,3.157-1.119,5.669,1.227,8.686
					c1.227,1.59,3.855,3.495,3.945,3.886c0.009,0.036,0.018,0.067,0.026,0.103l0.107,0.071l0.013,0.394
					c1.62,6.329,3.291,7.409,9.533,9.295c1.082,0.326,1.619,4.238,5.371,6.219c2.399,1.257,5.484,1.179,7.476,0.947
					c1.414,2.884,4.011,4.79,7.185,5.547c1.303,0.309,3.402,0.033,4.702-0.129l0.994-0.23l0.123,0.149
					c0.008,0.003,0.023,0.004,0.028,0.007c1.873,1.569,3.093,2.526,4.215,3.111c1.927,0.714,4.632,1.072,8.156,0.064l1.238-0.354
					l0.777,1.043c0.003,0.004,0.21,0.29,0.636,0.664c1.091,0.744,2.164,1.196,3.464,1.533c0.382,0.1,0.755,0.17,1.123,0.22
					c2.503,0.129,5.975-0.713,10.566-3.929c1.887-1.319,4.419-2.021,5.888-2.182c0.421-0.046,0.799-0.052,1.102-0.02
					c0.037,0.004,0.066,0.018,0.102,0.023c1.801,0.044,2.524,0.885,2.479,0.946c-0.143,0.202-0.367,0.521-0.609,0.925
					c0.032,0.425-0.07,0.834-0.323,1.22l-0.005-0.003c-0.166,0.268-0.314,0.733-0.432,1.216v0.007
					c-0.021,0.086-0.046,0.198-0.075,0.331c-0.139,0.65-0.206,1.193-0.206,1.363v0.001v0.003c0,1.556,0.492,2.928,1.269,3.901
					c0.066,0.069,0.127,0.145,0.196,0.209c0.675,0.619,1.523,0.959,2.396,0.982c0.733-0.019,1.428-0.254,2.01-0.682
					c0.352-0.325,0.669-0.727,0.932-1.191c0.166-0.293,0.314-0.625,0.441-0.992c0.132-0.384,0.23-0.767,0.288-1.14
					c0.05-0.321,0.077-0.684,0.077-1.089c0-0.264-0.138-1.301-0.435-2.235c-0.052-0.163-0.107-0.316-0.164-0.449
					c-0.04-0.094-0.078-0.172-0.11-0.228l-0.002,0.002c-0.008-0.013,0.03,0.059-0.068-0.113l0.001-0.001
					c-0.194-0.33-0.281-0.675-0.272-1.029c-0.231-0.41-0.441-0.743-0.566-0.978c0.024,0.042,0.603-0.741,2.161-0.914
					c0.127-0.03,0.243-0.071,0.383-0.086c0.303-0.032,0.68-0.025,1.1,0.021c1.469,0.161,4.005,0.862,5.89,2.183
					c4.658,3.264,8.163,4.083,10.675,3.925c0.362-0.05,0.73-0.118,1.107-0.217c0.64-0.165,1.264-0.329,1.865-0.536
					c1.464-0.708,2.141-1.646,2.146-1.653l0.777-1.043l1.239,0.354c3.509,1.003,6.208,0.65,8.132-0.059
					c1.102-0.538,2.29-1.421,4.085-2.914l0.302-0.365l0.896,0.208c1.275,0.155,3.529,0.478,4.902,0.154l7.187-5.543
					c1.988,0.231,5.076,0.308,7.475-0.953c3.752-1.973,4.286-5.888,5.376-6.214c6.093-1.844,7.827-2.907,9.413-8.846l0.028-0.84
					l0.227-0.154c0.002-0.008,0.004-0.014,0.006-0.022c0.091-0.394,2.72-2.297,3.948-3.884c2.344-3.019,2.372-5.529,1.225-8.689
					C170.51,53.912,170.243,52.956,170.14,52.511z M88.019,6.868c-0.009,0-0.016-0.005-0.025-0.004l0.039,0.002
					C88.028,6.866,88.024,6.868,88.019,6.868c1.194-0.007,1.855,1.876,1.58,3.304c-0.214,1.099-0.852,2.97-1.587,2.898
					c-0.692,0.051-1.372-1.8-1.584-2.898C86.149,8.74,86.683,6.866,88.019,6.868z M88.007,98.357c0.007,0,0.013,0.003,0.02,0.003
					h-0.041C87.993,98.36,87.999,98.356,88.007,98.357c-1.331-0.005-1.782-1.864-1.585-3.298c0.35-2.542,1.569-2.876,1.584-2.902
					c-0.006,0.007,1.292-0.054,1.587,2.901C89.737,96.5,89.203,98.374,88.007,98.357z M163.97,65.541
					c-1.269,4.594-4.757,9.007-9.662,9.982c-2.543,4.057-7.31,7.547-12.165,6.855c-3.093,3.75-7.867,6.246-12.785,4.992
					c-3.411,3.739-8.783,4.363-13.407,3.118c-2.167,2.392-7.976,3.993-11.114,2.283c-5.903-3.224-10.238-8.354-16.827-3.838
					c-6.605-4.517-10.943,0.612-16.848,3.834c-3.129,1.712-8.949,0.114-11.113-2.282c-4.629,1.244-9.994,0.616-13.408-3.121
					c-4.92,1.254-9.689-1.24-12.78-4.992c-4.858,0.693-9.618-2.802-12.164-6.859c-4.907-0.974-8.396-5.386-9.662-9.976
					c-4.089-2.45-6.646-8.212-4.376-12.926c-2.272-4.712,0.287-10.474,4.377-12.925c1.266-4.592,4.754-8.999,9.664-9.979
					c2.543-4.052,7.309-7.547,12.165-6.855c3.092-3.746,7.859-6.243,12.781-4.986c3.413-3.744,8.78-4.371,13.409-3.121
					c2.165-2.397,7.983-3.996,11.112-2.286c5.906,3.223,10.241,8.352,16.848,3.844c6.589,4.511,10.926-0.62,16.827-3.84
					c3.136-1.713,8.947-0.112,11.115,2.285c4.623-1.246,9.995-0.623,13.407,3.123c4.918-1.257,9.692,1.241,12.782,4.986
					c4.853-0.689,9.621,2.806,12.163,6.858c4.912,0.979,8.393,5.387,9.663,9.977c4.088,2.455,6.644,8.213,4.379,12.928
					C170.615,57.337,168.06,63.094,163.97,65.541z"/>
			</g>
		</g>
	</g>
	<path d="M60.525,93.453l-0.777-1.043l-1.238,0.354c-3.524,1.008-6.229,0.649-8.156-0.064c1.127,0.587,2.155,0.797,3.647,0.868
		c2.024,0.096,5.541-0.753,5.556-0.74c0.557,0.515,1.082,0.933,1.604,1.289C60.735,93.743,60.528,93.457,60.525,93.453z"/>
	<path d="M44.994,89.663c0.589-0.073,1.007-0.121,1.117-0.081l-0.123-0.149L44.994,89.663z"/>
	<path d="M68.809,9.248c1.016,0.235,2.134,0.617,3.359,1.19C71.083,9.904,69.972,9.481,68.809,9.248z"/>
	<path d="M82.202,89.759c-1.469,0.161-4.001,0.863-5.888,2.182c-4.591,3.216-8.063,4.058-10.566,3.929
		c5.833,0.797,9.929-4.347,15.423-5.811c0.881-0.235,1.62-0.312,2.235-0.297c-0.036-0.005-0.065-0.019-0.102-0.023
		C83.001,89.707,82.623,89.713,82.202,89.759z"/>
	<path d="M59.754,12.402l0.776-1.042c0,0,0.004-0.005,0.005-0.006c-0.316,0.247-0.636,0.513-0.968,0.819
		c-0.014,0.01-1.728-0.397-3.451-0.613c0.756,0.098,1.549,0.247,2.399,0.489L59.754,12.402z"/>
	<path d="M10.607,67.319c0.04,0.162,0.08,0.31,0.12,0.466l-0.013-0.394L10.607,67.319z"/>
	<path d="M80.332,14.684c-1.826-0.62-3.511-1.603-5.174-2.582c0.379,0.243,0.765,0.498,1.16,0.775
		C77.542,13.733,79.032,14.326,80.332,14.684z"/>
	<path d="M10.728,37.226c-0.02,0.078-0.04,0.154-0.06,0.234l0.053-0.036L10.728,37.226z"/>
	<path d="M54.008,11.436c-0.122,0.006-0.237,0.014-0.354,0.022c0.258-0.014,0.515-0.03,0.789-0.028
		C54.292,11.428,54.146,11.43,54.008,11.436z"/>
	<path d="M99.819,12.843c-0.018,0.01-0.036,0.02-0.054,0.031l0.003,0.004C99.785,12.865,99.802,12.855,99.819,12.843z"/>
	<path d="M115.561,11.362l0.776,1.042l1.239-0.353c1.818-0.518,3.407-0.662,4.796-0.592c-0.062-0.006-0.12-0.013-0.184-0.018
		c-2.04-0.181-5.525,0.798-5.559,0.737c-0.625-0.869-1.351-1.423-2.138-1.825C115.214,10.881,115.557,11.357,115.561,11.362z"/>
	<path d="M129.788,89.799c0.084-0.07,0.162-0.134,0.249-0.207c0.06-0.05,0.424-0.014,0.949,0.05l-0.896-0.208L129.788,89.799z"/>
	<path d="M117.571,92.772l-1.239-0.354l-0.777,1.043c-0.005,0.007-0.682,0.945-2.146,1.653c1.207-0.417,2.313-1.026,3.213-2.28
		c0.035-0.057,3.517,0.92,5.558,0.734c1.435-0.126,2.441-0.327,3.523-0.855C123.779,93.422,121.08,93.775,117.571,92.772z"/>
	<path d="M165.339,68.24c0.085-0.32,0.17-0.646,0.255-0.994l-0.227,0.154L165.339,68.24z"/>
	<path d="M84.966,11.989l0.002-0.001c-0.042-0.065-0.08-0.137-0.114-0.213c-0.041-0.093-0.093-0.236-0.152-0.414
		c-0.054-0.163-0.104-0.338-0.149-0.515c-0.21-0.816-0.309-1.577-0.308-1.786V9.053c0-0.983,0.201-1.885,0.539-2.666
		c-1.463,2.874-0.39,5.488,0.48,6.95C85.332,12.871,85.242,12.419,84.966,11.989z"/>
	<path d="M91.85,9.053c0,0.076-0.019,0.27-0.058,0.541c-0.029,0.203-0.055,0.365-0.072,0.46h-0.001
		c-0.03,0.161-0.065,0.334-0.106,0.515c-0.127,0.56-0.294,1.123-0.484,1.415c-0.268,0.41-0.361,0.842-0.312,1.286
		c0.852-1.516,1.986-4.127,0.349-7.21c-0.011-0.021-0.025-0.038-0.036-0.059c0.449,0.861,0.72,1.903,0.72,3.049V9.053z"/>
	<path d="M99.762,91.942c-1.885-1.321-4.421-2.022-5.89-2.183c-0.42-0.046-0.797-0.053-1.1-0.021
		c-0.14,0.015-0.256,0.056-0.383,0.086c0.677-0.075,1.535-0.037,2.617,0.237c5.517,1.391,9.598,6.608,15.431,5.806
		C107.925,96.025,104.42,95.206,99.762,91.942z"/>
	<path d="M96.61,14.422c1.058-0.36,2.173-0.867,3.129-1.534C98.726,13.464,97.691,13.999,96.61,14.422z"/>
	<path d="M91.065,92.746c0.098,0.172,0.06,0.1,0.068,0.113l0.002-0.002c0.032,0.056,0.07,0.134,0.11,0.228
		c0.057,0.133,0.112,0.286,0.164,0.449c0.297,0.934,0.435,1.971,0.435,2.235c0,0.405-0.027,0.768-0.077,1.089
		c-0.058,0.373-0.156,0.756-0.288,1.14c-0.127,0.367-0.275,0.699-0.441,0.992c-0.263,0.464-0.579,0.866-0.932,1.191
		c0.419-0.309,0.782-0.715,1.049-1.227c1.647-3.107,0.491-5.725-0.362-7.238c-0.009,0.355,0.078,0.699,0.272,1.029L91.065,92.746z"
		/>
	<path d="M84.235,95.768v-0.001c0-0.17,0.067-0.713,0.206-1.363c0.029-0.133,0.054-0.245,0.075-0.331v-0.007
		c0.118-0.483,0.266-0.948,0.432-1.216l0.005,0.003c0.254-0.386,0.355-0.794,0.323-1.22c-0.898,1.502-2.057,4.255-0.363,7.26
		c0.167,0.297,0.372,0.549,0.591,0.779c-0.777-0.973-1.269-2.345-1.269-3.901V95.768z"/>
	<path d="M85.513,99.685c0.058,0.073,0.127,0.128,0.188,0.196c-0.07-0.064-0.131-0.14-0.196-0.209
		C85.508,99.676,85.51,99.681,85.513,99.685z"/>
	<path d="M165.541,37.555c-0.065-0.264-0.131-0.519-0.196-0.766l0.021,0.648L165.541,37.555z"/>
	<path fill="#FFFFFF" d="M157.714,63.844c-0.522,0-0.968,0.185-1.338,0.554c-0.369,0.37-0.554,0.816-0.554,1.338
		c0,0.522,0.185,0.969,0.554,1.338c0.37,0.37,0.816,0.555,1.338,0.555c0.522,0,0.969-0.185,1.338-0.555
		c0.37-0.369,0.555-0.816,0.555-1.338c0-0.522-0.185-0.968-0.555-1.338C158.683,64.029,158.236,63.844,157.714,63.844z
		 M158.081,66.989c-0.24-0.477-0.401-0.763-0.482-0.855c-0.082-0.094-0.164-0.141-0.245-0.141c-0.019,0-0.044,0.003-0.078,0.01
		v0.986h-0.623v-2.506h-0.001h0.001h1.12c0.318,0,0.547,0.064,0.69,0.192c0.142,0.128,0.213,0.3,0.213,0.515
		c0,0.168-0.053,0.314-0.162,0.436c-0.109,0.123-0.28,0.212-0.513,0.267c0.096,0.037,0.167,0.076,0.212,0.116
		c0.063,0.058,0.13,0.143,0.199,0.255c0.004,0.008,0.139,0.249,0.406,0.725H158.081z"/>
	<path fill="#FFFFFF" d="M82.071,50.568c-1.104,0-1.992,0.928-1.992,2.072c0,0.221,0.031,0.439,0.095,0.637l3.786-1.3
		C83.691,51.156,82.946,50.57,82.071,50.568z"/>
	<path fill="#FFFFFF" d="M157.93,65.006c-0.071-0.058-0.191-0.087-0.361-0.087h-0.296v0.627h0.001h0.27
		c0.181,0,0.307-0.029,0.381-0.088c0.075-0.059,0.111-0.133,0.111-0.225C158.036,65.141,158,65.065,157.93,65.006z"/>
	<path d="M100.016,47.512c-1.287-0.82-3.107-0.531-3.107-0.531c-1.469,0.071-2.86,1.246-2.86,1.246l-0.173-0.887h-4.231v14.259
		l4.693,0.001v-8.693c0.089-1.11,0.445-1.608,1.816-1.539c1.428,0.079,1.576,1.537,1.576,1.537l-0.001,8.713l4.57,0.001V51.226
		C102.014,48.37,100.016,47.512,100.016,47.512z"/>
	<path d="M122.685,41.765c0,0-2.247-1.407-5.388-1.352h-6.639v0.001l-0.001,21.172h6.208c0,0,3.966-0.181,5.784-1.47
		c0,0,4.179-1.848,4.289-9.348C126.938,50.768,127.007,44.158,122.685,41.765z M119.936,55.801
		c-0.932,1.068-2.428,1.102-2.428,1.102l-1.427,0.003l-0.003-11.749h1.397c1.338,0,2.172,0.823,2.172,0.823
		c1.805,1.148,1.826,4.931,1.826,5.032C121.473,54.483,119.936,55.801,119.936,55.801z"/>
	<path d="M136.499,48.164c-1.344-1.422-3.916-1.341-5.541-0.624c-2.802,1.427-3.947,4.4-3.778,7.478
		c0.087,2.574,1.09,5.2,3.577,6.377c1.876,0.797,4.343,0.683,5.968-0.691l0.117,0.832l4.452,0.002l0.002-14.256l-4.654-0.002
		L136.499,48.164z M136.577,54.518c0,3-2.069,2.895-2.069,2.895c-2.499-0.003-2.215-2.861-2.215-2.861
		c0-2.997,2.144-2.895,2.144-2.895C136.897,51.733,136.576,54.518,136.577,54.518z"/>
	<rect x="103.974" y="50.835" width="4.863" height="4.641"/>
	<polygon points="153.581,47.286 142.071,47.286 142.076,51.374 146.43,51.374 141.719,61.557 152.716,61.557 152.716,57.693 
		148.786,57.693 	"/>
	<path d="M163.105,53.945c-1.464-1.464-3.928-1.499-3.928-1.499c-1.568-0.138-1.427-0.643-1.427-0.643
		c0-0.93,1.532-0.891,1.532-0.891c2.037-0.209,3.752,0.645,3.752,0.645v-3.681c-1.999-0.82-4.553-0.79-4.553-0.79
		c-2.675-0.174-4.376,1.609-4.376,1.609c-2.102,2.177-0.942,5.088-0.942,5.088c1.268,2.288,3.985,2.553,3.985,2.553
		c1.996,0.355,1.82,1.077,1.82,1.077c-0.072,0.858-2.073,0.817-2.073,0.817c-1.643-0.035-3.574-1.031-3.574-1.031l0.002,3.956
		c0.216,0.286,3.104,0.752,3.104,0.752c3.248,0.431,5.363-0.993,5.363-0.993c2.426-1.396,2.317-4.042,2.317-4.042
		C164.249,55.124,163.105,53.945,163.105,53.945z"/>
	<ellipse cx="42.135" cy="42.925" rx="2.702" ry="2.703"/>
	<path d="M158.213,66.009c-0.045-0.04-0.116-0.079-0.212-0.116c0.233-0.055,0.404-0.144,0.513-0.267
		c0.109-0.122,0.162-0.268,0.162-0.436c0-0.215-0.071-0.387-0.213-0.515c-0.143-0.128-0.372-0.192-0.69-0.192h-1.12v2.506h0.623
		v-0.986c0.034-0.007,0.059-0.01,0.078-0.01c0.081,0,0.163,0.047,0.245,0.141c0.081,0.092,0.242,0.378,0.482,0.855h0.737
		c-0.267-0.476-0.402-0.717-0.406-0.725C158.343,66.152,158.276,66.067,158.213,66.009z M157.544,65.546h-0.27h-0.001v-0.627h0.296
		c0.17,0,0.29,0.029,0.361,0.087c0.07,0.059,0.106,0.135,0.106,0.227c0,0.092-0.036,0.166-0.111,0.225
		C157.851,65.517,157.725,65.546,157.544,65.546z"/>
	<path d="M158.887,63.705c-0.361-0.21-0.753-0.314-1.173-0.314c-0.417,0-0.807,0.104-1.17,0.314
		c-0.363,0.209-0.649,0.495-0.859,0.859c-0.209,0.363-0.314,0.754-0.314,1.172c0,0.42,0.104,0.811,0.314,1.173
		c0.21,0.362,0.496,0.647,0.859,0.857c0.363,0.209,0.753,0.314,1.17,0.314c0.42,0,0.811-0.105,1.173-0.314
		c0.363-0.209,0.649-0.494,0.859-0.857c0.209-0.361,0.315-0.753,0.315-1.173c0-0.418-0.105-0.809-0.315-1.172
		C159.536,64.2,159.25,63.914,158.887,63.705z M159.052,67.074c-0.369,0.37-0.816,0.555-1.338,0.555
		c-0.522,0-0.968-0.185-1.338-0.555c-0.369-0.369-0.554-0.816-0.554-1.338c0-0.522,0.185-0.968,0.554-1.338
		c0.37-0.369,0.816-0.554,1.338-0.554c0.522,0,0.969,0.185,1.338,0.554c0.37,0.37,0.555,0.816,0.555,1.338
		C159.607,66.258,159.422,66.705,159.052,67.074z"/>
	<polygon points="24.734,40.42 24.734,48.366 19.666,48.368 19.655,40.407 14.517,40.408 14.513,61.56 19.648,61.567 19.653,53.246 
		24.808,53.244 24.791,61.589 29.95,61.587 29.932,40.42 	"/>
	<ellipse cx="35.706" cy="42.925" rx="2.7" ry="2.703"/>
	<path d="M40.075,48.162c-1.342-1.427-3.916-1.342-5.545-0.63c-2.794,1.43-3.939,4.402-3.771,7.483
		c0.089,2.573,1.085,5.198,3.57,6.374c1.886,0.798,4.344,0.683,5.973-0.689l0.114,0.832l4.455-0.002l0.003-14.255l-4.658,0.004
		L40.075,48.162z M40.15,54.51c0,3-2.072,2.897-2.072,2.897c-2.498-0.001-2.209-2.861-2.209-2.861c0-2.997,2.143-2.891,2.143-2.891
		C40.472,51.726,40.149,54.511,40.15,54.51z"/>
	<path d="M80.519,46.797c-2.427,0.511-4.487,2.809-5.02,5.231c-0.369,2.898-0.007,5.794,2.223,7.796
		c2.63,2.309,7.113,2.336,10.14,0.736l-0.004-3.789l-1.264,0.57c-1.7,0.552-4.047,0.875-5.245-0.55l7.624-2.742
		c-0.11-1.452-0.26-2.841-0.966-4.114C86.574,47.196,83.547,46.167,80.519,46.797z M80.174,53.277
		c-0.064-0.198-0.095-0.416-0.095-0.637c0-1.144,0.888-2.072,1.992-2.072c0.875,0.002,1.62,0.588,1.889,1.409L80.174,53.277z"/>
	<path d="M69.834,47.967c-1.466-1.492-4.195-1.316-5.882-0.433c-2.541,1.487-3.395,4.261-3.426,7.085
		c0,2.795,1.258,5.686,3.97,6.771c1.627,0.626,3.772,0.428,5.141-0.601c0.169,0.857,0.056,1.829-0.543,2.457
		c-1.773,1.541-4.599,0.883-6.515,0.146l0.006,4.132c2.943,0.997,7.164,1.292,9.705-0.706c1.602-1.344,2.285-3.172,2.343-5.229
		l0.018-14.512h-4.674L69.834,47.967z M69.897,54.337c0,3.001-2.075,2.886-2.075,2.886c-2.495,0-2.213-2.856-2.213-2.856
		c0.003-2.997,2.142-2.887,2.142-2.887C70.215,51.554,69.898,54.336,69.897,54.337z"/>
	<path d="M54.961,48.16c-1.34-1.426-3.911-1.342-5.539-0.626c-2.796,1.428-3.947,4.401-3.774,7.481
		c0.088,2.573,1.088,5.199,3.572,6.376c1.884,0.794,4.343,0.683,5.971-0.691l0.116,0.832h4.45l0.004-14.254l-4.656-0.002
		L54.961,48.16z M55.041,54.514c0.002,2.998-2.069,2.894-2.069,2.894c-2.5-0.001-2.217-2.862-2.217-2.862
		c0-2.993,2.143-2.89,2.143-2.89C55.36,51.729,55.041,54.513,55.041,54.514z"/>
</g>
</svg>
