<?xml version="1.0" encoding="utf-8"?>
<!-- Generator: Adobe Illustrator 21.0.2, SVG Export Plug-In . SVG Version: 6.00 Build 0)  -->
<svg version="1.1" id="Layer_1" xmlns="http://www.w3.org/2000/svg" xmlns:xlink="http://www.w3.org/1999/xlink" x="0px" y="0px"
	 viewBox="0 0 219.14 219.14" enable-background="new 0 0 219.14 219.14" xml:space="preserve">
<g>
	<path fill="#FFFFFF" d="M109.57,0c-1.65,0-3.291,0.043-4.925,0.115c-8.507,0.376-16.763,1.721-24.658,3.93
		C33.846,16.953,0,59.307,0,109.57c0,51.755,35.887,95.124,84.132,106.595c7.149,1.699,14.567,2.701,22.183,2.924
		c1.082,0.031,2.166,0.051,3.256,0.051c60.514,0,109.569-49.057,109.569-109.569C219.14,49.056,170.084,0,109.57,0z"/>
	<path d="M219.14,109.57C219.14,49.056,170.084,0,109.57,0c-1.65,0-3.291,0.043-4.925,0.115L82.231,61.717h19.521
		c11.614,0,17.872,8.939,13.896,19.863l-27.646,75.974l-23.213-0.004l29.666-81.433H77.003L47.337,157.55l-23.222-0.002
		l34.883-95.831h0.006L79.987,4.045C33.846,16.953,0,59.307,0,109.57c0,51.755,35.887,95.124,84.132,106.595l20.335-55.877h0.014
		l35.872-98.571h42.752c11.625,0,17.883,8.939,13.908,19.863l-24.294,66.729c-1.85,5.08-7.787,9.238-13.196,9.238h-30.816
		l-22.392,61.541c1.082,0.031,2.166,0.051,3.256,0.051C170.084,219.14,219.14,170.083,219.14,109.57z M151.433,143.099h-17.447
		l24.434-67.04h17.447L151.433,143.099z"/>
</g>
</svg>
