<?xml version="1.0" encoding="utf-8"?>
<!-- Generator: Adobe Illustrator 21.0.2, SVG Export Plug-In . SVG Version: 6.00 Build 0)  -->
<svg version="1.1" id="Layer_1" xmlns="http://www.w3.org/2000/svg" xmlns:xlink="http://www.w3.org/1999/xlink" x="0px" y="0px"
	 viewBox="0 0 219.1 219.1" style="enable-background:new 0 0 219.1 219.1;" xml:space="preserve">
<g>
	<path d="M147.2,6.6c1.7,0.6,3.3,1.3,5,2C150.6,7.9,148.9,7.3,147.2,6.6z"/>
	<path d="M161.8,13.2c2.3,1.3,4.6,2.6,6.8,4C166.4,15.8,164.1,14.5,161.8,13.2z"/>
	<path d="M152.2,8.6c2.5,1,4.9,2.2,7.2,3.4C157.1,10.8,154.7,9.7,152.2,8.6z"/>
	<path d="M219.1,109.6C219.1,109.6,219.1,109.6,219.1,109.6c0-37.8-19.2-71.2-48.3-90.9C200,38.4,219.1,71.7,219.1,109.6z"/>
	<polygon points="175.9,76.1 158.4,76.1 134,143.1 151.4,143.1 	"/>
	<path d="M104.5,160.3l35.9-98.6h42.8c11.6,0,17.9,8.9,13.9,19.9l-24.3,66.7c-1.8,5.1-7.8,9.2-13.2,9.2h-30.8l-22.4,61.5
		c1.1,0,2.2,0.1,3.3,0.1c60.5,0,109.6-49.1,109.6-109.6c0-37.8-19.2-71.2-48.3-90.9c-0.7-0.5-1.5-1-2.2-1.5c-2.2-1.4-4.5-2.8-6.8-4
		c-0.8-0.4-1.6-0.8-2.3-1.2c-2.4-1.2-4.8-2.3-7.2-3.4c-1.6-0.7-3.3-1.3-5-2C135.5,2.3,122.8,0,109.6,0c-1.7,0-3.3,0-4.9,0.1
		L82.2,61.7h19.5c11.6,0,17.9,8.9,13.9,19.9l-27.6,76l-23.2,0l29.7-81.4H77l-29.7,81.4l-23.2,0L59,61.7h0L80,4
		C33.8,17,0,59.3,0,109.6c0,51.8,35.9,95.1,84.1,106.6L104.5,160.3L104.5,160.3z"/>
</g>
</svg>
