<?xml version="1.0" encoding="utf-8"?>
<!-- Generator: Adobe Illustrator 21.0.2, SVG Export Plug-In . SVG Version: 6.00 Build 0)  -->
<svg version="1.1" id="Layer_1" xmlns="http://www.w3.org/2000/svg" xmlns:xlink="http://www.w3.org/1999/xlink" x="0px" y="0px"
	 viewBox="0 0 106.8 258.9" style="enable-background:new 0 0 106.8 258.9;" xml:space="preserve">
<g>
	<path d="M69.5,43.2l0.1,0.9c1.9,1.1,2.9,2.1,4.9,3.3c5.2,3.3,11.5,9.1,10.7,29.2c1.5,4.4,2.1,12.9,3.5,15.7
		c2.7,5.4,4.5,8.9,5.3,13.9c0,0,0.8,7.9,1.8,8.5c5.3,1.2,3.8,1.8,4.6,2.7c0.8,1.1,3.9,1,3.9,3.9c1.1,1.4,1.9,2.9,2.5,4.5V21.6
		C106.8,9.6,97.1,0,85.2,0H64.7C68,1.2,69.9,2.6,71,4.8c2.6,0.2,5.7,6.1,0.9,15c2.1,1.5,0.5,3.7-1.1,6.2c-0.5,0.8-1,2.2-2.4,2.1
		c-1.9,4-4.2,7.8-5.9,8c-0.5,0.6-0.8,2.3-0.1,3.1C64.9,40.3,67.9,41.8,69.5,43.2z"/>
	<path d="M88.9,152c-10.6,0-19.2-8.6-19.2-19.3c0-9,6.3-16.6,14.6-18.6c-2.1-5.6-6.8-14.5-8.2-17.5c-1.4-2.9-4.5-21.2-5.2-24.8
		c-0.1-0.8-8.2,4.7-8.3,5c-0.5,0.5-6.1,15.2-6.4,15.9l-0.2,2.5c0,0,2.9,0.3,4.4,5.1c1.6,4.8,6.4,22.5,6.4,22.5l-1.4,1.3
		c6.1,20.3,3.9,29,6.6,34.9c3.5,8.5,4.4,7.3,7.3,14.4c2.1,5.1,4.5,25.3,5.3,26.3c3.2,4.1,5,7.4,5,9.7c0,2.4-2.8,9.3-1.8,13.3
		c0.6,2.5,0.9,7.8,2.1,8.8c0,0,1,2.1,0.5,2.9l-0.4,1.1c1.8,6.4,7.6,17.3-1.8,23l0.2,0c10.3-1.6,18.1-10.5,18.1-21.3l0-97.5
		C104,147,97,152,88.9,152z"/>
	<path d="M45.5,220.7c0-2.2-0.4-3.5-2.3-3.5h-0.3h-2.1v7.3h2.1C45.3,224.5,45.5,222.7,45.5,220.7z"/>
	<polygon points="63.7,216.6 63.7,216.6 63.6,216.6 63.6,217.4 61.7,231.8 63.7,231.8 65.4,231.8 63.7,217.4 	"/>
	<path d="M82.5,233.2c-3.5-3.1-1.1-4.4-1.3-5.7c-2.3-9.4-9.8-15.1-5.9-18.2c-1-3.2-2.9-7-2.8-7c-3.1-1.8-6.1-3.9-8.9-6.1
		c-7.5-5.8-13.2-12-14.4-13.2c-2-2.2-5.5-4.5-6.2-6.3c0,0-0.1-0.1-0.1-0.1c-3.1-3.1-16.5-22.1-19.6-29.2l-2.2-0.3l-3.4-0.5
		c-2.5-10.3-11-19-11.2-29.4c-0.1-4,1.8-12.4,2.5-14.1c0.7-1.7,3.9-4.5,3.9-4.5V96c-12.2,0.4-8.6-0.9-10.8-5.6
		c-1.4-3.3-0.4-4,0.1-6.3c1.6-6.7,7.1-17.1,9.3-21.8c0.7-2.4,3-8.1,3-8.1c2.5-5.1,4.6-8.7,6.5-11.3c5-6.7,8.9-6.1,16.7-6.9l0.6-0.8
		c1.8-0.1,3.3-0.2,4.6-0.3c5.7-0.7,4.7-2.8,6-11.4c-1.6,0.7-2-3.3-2-3.3c-0.8-5.9,1.6-4.8,2.8-4.9C49.9,5.7,50.9,2.7,57.9,0h-15
		H21.6c-0.2,0-0.3,0-0.5,0C9.4,0.3,0,9.8,0,21.6v215.8c0,11.7,9.4,21.3,21.1,21.5c0.2,0,0.3,0,0.5,0h21.4h20.7h21.6
		C78,255,82.3,247.5,82.5,233.2z M30.7,244h-7.3l-2.3-8.3l-2.9-10.5l-0.1-1.1H18v20h-6.4v-32.3h7.3l2.3,8l2.9,9.7l0.2,1.3h0.1v-19
		h6.4V244z M44,244h-1.1h-9.7v-32.3h9.7h0.8c5.4,0,8,2.1,8,7.6c0,3.4-0.5,6.4-4.1,7.6v0c3.6,0.7,4.9,3.4,4.9,7.4
		C52.6,239.8,50.6,244,44,244z M66.8,244l-0.7-7.1h-2.5H61l-0.8,7.1h-7.4l5.9-32.3h5h4.9l6.1,32.3H66.8z"/>
	<path d="M43.2,229.7h-0.3h-2.1v8.8h2.1h0.1c2.5,0,2.8-1.2,2.8-4.4C45.8,231.9,45.6,229.7,43.2,229.7z"/>
</g>
</svg>
