<?xml version="1.0" encoding="utf-8"?>
<!-- Generator: Adobe Illustrator 21.0.2, SVG Export Plug-In . SVG Version: 6.00 Build 0)  -->
<svg version="1.1" id="Layer_1" xmlns="http://www.w3.org/2000/svg" xmlns:xlink="http://www.w3.org/1999/xlink" x="0px" y="0px"
	 viewBox="0 0 441.214 107.738" enable-background="new 0 0 441.214 107.738" xml:space="preserve">
<g id="XMLID_4_">
	<g id="XMLID_12_">
		<g id="XMLID_13_">
			<g id="XMLID_14_">
				<g id="XMLID_15_">
					<path id="XMLID_57_" d="M167.794,46.961c-1.335,8.761-8.029,8.761-14.502,8.761h-3.684l2.585-16.362
						c0.154-0.989,1.01-1.717,2.01-1.717h1.689c4.409,0,8.568,0,10.717,2.513C167.891,41.656,168.283,43.883,167.794,46.961z
						 M164.977,24.094h-24.416c-1.671,0-3.092,1.214-3.352,2.863l-9.875,62.609c-0.196,1.235,0.76,2.349,2.014,2.349h11.656
						c1.671,0,3.092-1.214,3.352-2.867l2.663-16.886c0.257-1.653,1.682-2.867,3.349-2.867h7.729c16.083,0,25.366-7.783,27.79-23.206
						c1.092-6.748,0.046-12.049-3.113-15.762C179.304,26.251,173.149,24.094,164.977,24.094z"/>
					<path id="XMLID_54_" d="M221.663,69.435c-1.128,6.679-6.43,11.164-13.191,11.164c-3.395,0-6.108-1.089-7.851-3.153
						c-1.728-2.049-2.385-4.966-1.835-8.215c1.053-6.623,6.444-11.253,13.102-11.253c3.32,0,6.019,1.103,7.797,3.184
						C221.467,63.265,222.174,66.2,221.663,69.435z M237.961,46.679h-11.692c-0.996,0-1.856,0.728-2.01,1.717l-0.518,3.27
						l-0.818-1.185c-2.531-3.674-8.176-4.902-13.809-4.902c-12.92,0-23.955,9.786-26.105,23.513
						c-1.117,6.847,0.471,13.395,4.356,17.961c3.563,4.198,8.661,5.948,14.727,5.948c10.41,0,16.183-6.694,16.183-6.694
						l-0.521,3.249c-0.196,1.242,0.76,2.356,2.006,2.356h10.532c1.674,0,3.088-1.214,3.352-2.867l6.319-40.017
						C240.164,47.796,239.21,46.679,237.961,46.679z"/>
					<path id="XMLID_33_" d="M300.23,46.679h-11.749c-1.121,0-2.174,0.557-2.81,1.489l-16.205,23.87l-6.869-22.938
						c-0.432-1.435-1.756-2.42-3.256-2.42h-11.546c-1.403,0-2.378,1.371-1.931,2.692l12.942,37.979l-12.167,17.176
						c-0.957,1.353,0.007,3.213,1.66,3.213h11.735c1.114,0,2.156-0.543,2.788-1.457l39.078-56.407
						C302.837,48.525,301.876,46.679,300.23,46.679z"/>
					<path id="XMLID_38_" d="M341.947,46.961c-1.332,8.761-8.026,8.761-14.502,8.761h-3.681l2.588-16.362
						c0.154-0.989,1.003-1.717,2.006-1.717h1.689c4.405,0,8.568,0,10.717,2.513C342.047,41.656,342.436,43.883,341.947,46.961z
						 M339.13,24.094h-24.419c-1.667,0-3.088,1.214-3.349,2.863l-9.875,62.609c-0.196,1.235,0.76,2.349,2.006,2.349h12.531
						c1.164,0,2.16-0.849,2.342-2.006l2.803-17.747c0.257-1.653,1.682-2.867,3.349-2.867h7.726c16.087,0,25.365-7.783,27.793-23.206
						c1.096-6.748,0.043-12.049-3.117-15.762C353.453,26.251,347.302,24.094,339.13,24.094z"/>
					<path id="XMLID_21_" d="M395.813,69.435c-1.121,6.679-6.43,11.164-13.191,11.164c-3.388,0-6.108-1.089-7.851-3.153
						c-1.728-2.049-2.378-4.966-1.835-8.215c1.06-6.623,6.444-11.253,13.102-11.253c3.32,0,6.019,1.103,7.797,3.184
						C395.623,63.265,396.33,66.2,395.813,69.435z M412.11,46.679h-11.685c-1.003,0-1.856,0.728-2.006,1.717l-0.518,3.27
						l-0.821-1.185c-2.531-3.674-8.172-4.902-13.806-4.902c-12.92,0-23.952,9.786-26.101,23.513
						c-1.114,6.847,0.468,13.395,4.352,17.961c3.57,4.198,8.661,5.948,14.727,5.948c10.41,0,16.183-6.694,16.183-6.694l-0.521,3.249
						c-0.196,1.242,0.76,2.356,2.014,2.356h10.528c1.667,0,3.088-1.214,3.349-2.867l6.323-40.017
						C414.32,47.796,413.363,46.679,412.11,46.679z"/>
					<path id="XMLID_28_" d="M425.894,25.812l-10.021,63.755c-0.196,1.235,0.76,2.349,2.006,2.349h10.075
						c1.674,0,3.095-1.214,3.352-2.867l9.882-62.605c0.196-1.235-0.76-2.353-2.006-2.353h-11.281
						C426.904,24.094,426.048,24.823,425.894,25.812z"/>
					<path id="XMLID_27_" fill="#253B80" d="M25.94,104.082l1.867-11.86l-4.159-0.097H3.788L17.59,4.613
						c0.043-0.264,0.182-0.511,0.386-0.686c0.203-0.175,0.464-0.271,0.735-0.271h33.487c11.117,0,18.789,2.313,22.795,6.879
						c1.878,2.142,3.074,4.381,3.652,6.844c0.607,2.585,0.618,5.673,0.025,9.44l-0.043,0.275v2.413l1.878,1.064
						c1.582,0.839,2.838,1.799,3.802,2.899c1.607,1.832,2.645,4.159,3.085,6.919c0.453,2.838,0.303,6.216-0.439,10.039
						c-0.857,4.398-2.242,8.229-4.113,11.364c-1.721,2.888-3.913,5.284-6.515,7.14c-2.485,1.764-5.437,3.102-8.775,3.96
						c-3.235,0.842-6.922,1.267-10.967,1.267h-2.606c-1.864,0-3.674,0.671-5.095,1.874c-1.424,1.228-2.367,2.906-2.656,4.741
						l-0.196,1.068l-3.299,20.903l-0.15,0.768c-0.039,0.243-0.107,0.364-0.207,0.446c-0.089,0.075-0.218,0.125-0.343,0.125H25.94z"
						/>
					<path id="XMLID_26_" d="M82.283,27.372c-0.1,0.639-0.214,1.292-0.343,1.963C77.525,52.009,62.416,59.842,43.12,59.842h-9.825
						c-2.36,0-4.348,1.713-4.716,4.041l-5.03,31.902l-1.424,9.043c-0.239,1.528,0.939,2.906,2.481,2.906h17.426
						c2.064,0,3.816-1.499,4.141-3.534l0.171-0.885l3.281-20.821l0.211-1.143c0.321-2.042,2.078-3.542,4.141-3.542h2.606
						c16.883,0,30.099-6.855,33.962-26.69c1.614-8.286,0.778-15.205-3.492-20.071C85.761,29.582,84.158,28.364,82.283,27.372z"/>
					<path id="XMLID_25_" fill="#FFFFFF" d="M77.664,25.53c-0.675-0.196-1.371-0.375-2.085-0.535
						c-0.718-0.157-1.453-0.297-2.21-0.418c-2.649-0.428-5.551-0.632-8.661-0.632H38.461c-0.646,0-1.26,0.146-1.81,0.41
						c-1.21,0.582-2.11,1.728-2.328,3.131l-5.584,35.365l-0.161,1.032c0.368-2.328,2.356-4.041,4.716-4.041h9.825
						c19.296,0,34.405-7.837,38.821-30.507c0.132-0.671,0.243-1.324,0.343-1.963c-1.117-0.593-2.328-1.1-3.631-1.532
						C78.331,25.733,77.999,25.63,77.664,25.53z"/>
					<path id="XMLID_24_" d="M34.323,27.486c0.218-1.403,1.117-2.549,2.328-3.127c0.553-0.264,1.164-0.411,1.81-0.411h26.247
						c3.11,0,6.012,0.204,8.661,0.632c0.757,0.121,1.492,0.261,2.21,0.418c0.714,0.16,1.41,0.339,2.085,0.535
						c0.336,0.1,0.668,0.204,0.992,0.307c1.303,0.432,2.513,0.942,3.631,1.532c1.314-8.379-0.011-14.084-4.541-19.25
						C72.751,2.434,63.737,0,52.202,0H18.714c-2.356,0-4.366,1.713-4.73,4.045L0.036,92.458c-0.275,1.749,1.075,3.328,2.838,3.328
						h20.674l5.191-32.934L34.323,27.486z"/>
				</g>
			</g>
		</g>
	</g>
</g>
</svg>
