<?xml version="1.0" encoding="utf-8"?>
<!-- Generator: Adobe Illustrator 21.0.2, SVG Export Plug-In . SVG Version: 6.00 Build 0)  -->
<svg version="1.1" id="Layer_1" xmlns="http://www.w3.org/2000/svg" xmlns:xlink="http://www.w3.org/1999/xlink" x="0px" y="0px"
	 viewBox="0 0 441.2 107.7" style="enable-background:new 0 0 441.2 107.7;" xml:space="preserve">
<style type="text/css">
	.st0{fill:none;}
	.st1{fill:#253B80;}
	.st2{fill:#FFFFFF;}
</style>
<g id="XMLID_4_">
	<g id="XMLID_12_">
		<g id="XMLID_13_">
			<g id="XMLID_14_">
				<g id="XMLID_15_">
					<path id="XMLID_57_" d="M167.8,47c-1.3,8.8-8,8.8-14.5,8.8h-3.7l2.6-16.4c0.2-1,1-1.7,2-1.7h1.7c4.4,0,8.6,0,10.7,2.5
						C167.9,41.7,168.3,43.9,167.8,47z M165,24.1h-24.4c-1.7,0-3.1,1.2-3.4,2.9l-9.9,62.6c-0.2,1.2,0.8,2.3,2,2.3H141
						c1.7,0,3.1-1.2,3.4-2.9l2.7-16.9c0.3-1.7,1.7-2.9,3.3-2.9h7.7c16.1,0,25.4-7.8,27.8-23.2c1.1-6.7,0-12-3.1-15.8
						C179.3,26.3,173.1,24.1,165,24.1z"/>
					<path id="XMLID_54_" d="M221.7,69.4c-1.1,6.7-6.4,11.2-13.2,11.2c-3.4,0-6.1-1.1-7.9-3.2c-1.7-2-2.4-5-1.8-8.2
						c1.1-6.6,6.4-11.3,13.1-11.3c3.3,0,6,1.1,7.8,3.2C221.5,63.3,222.2,66.2,221.7,69.4z M238,46.7h-11.7c-1,0-1.9,0.7-2,1.7
						l-0.5,3.3l-0.8-1.2c-2.5-3.7-8.2-4.9-13.8-4.9c-12.9,0-24,9.8-26.1,23.5c-1.1,6.8,0.5,13.4,4.4,18c3.6,4.2,8.7,5.9,14.7,5.9
						c10.4,0,16.2-6.7,16.2-6.7l-0.5,3.2c-0.2,1.2,0.8,2.4,2,2.4h10.5c1.7,0,3.1-1.2,3.4-2.9l6.3-40C240.2,47.8,239.2,46.7,238,46.7
						z"/>
					<path id="XMLID_33_" d="M300.2,46.7h-11.7c-1.1,0-2.2,0.6-2.8,1.5L269.5,72l-6.9-22.9c-0.4-1.4-1.8-2.4-3.3-2.4h-11.5
						c-1.4,0-2.4,1.4-1.9,2.7l12.9,38l-12.2,17.2c-1,1.4,0,3.2,1.7,3.2H260c1.1,0,2.2-0.5,2.8-1.5l39.1-56.4
						C302.8,48.5,301.9,46.7,300.2,46.7z"/>
					<path id="XMLID_38_" d="M341.9,47c-1.3,8.8-8,8.8-14.5,8.8h-3.7l2.6-16.4c0.2-1,1-1.7,2-1.7h1.7c4.4,0,8.6,0,10.7,2.5
						C342,41.7,342.4,43.9,341.9,47z M339.1,24.1h-24.4c-1.7,0-3.1,1.2-3.3,2.9l-9.9,62.6c-0.2,1.2,0.8,2.3,2,2.3H316
						c1.2,0,2.2-0.8,2.3-2l2.8-17.7c0.3-1.7,1.7-2.9,3.3-2.9h7.7c16.1,0,25.4-7.8,27.8-23.2c1.1-6.7,0-12-3.1-15.8
						C353.5,26.3,347.3,24.1,339.1,24.1z"/>
					<path id="XMLID_21_" d="M395.8,69.4c-1.1,6.7-6.4,11.2-13.2,11.2c-3.4,0-6.1-1.1-7.9-3.2c-1.7-2-2.4-5-1.8-8.2
						C374,62.6,379.4,58,386,58c3.3,0,6,1.1,7.8,3.2C395.6,63.3,396.3,66.2,395.8,69.4z M412.1,46.7h-11.7c-1,0-1.9,0.7-2,1.7
						l-0.5,3.3l-0.8-1.2c-2.5-3.7-8.2-4.9-13.8-4.9c-12.9,0-24,9.8-26.1,23.5c-1.1,6.8,0.5,13.4,4.4,18c3.6,4.2,8.7,5.9,14.7,5.9
						c10.4,0,16.2-6.7,16.2-6.7l-0.5,3.2c-0.2,1.2,0.8,2.4,2,2.4h10.5c1.7,0,3.1-1.2,3.3-2.9l6.3-40
						C414.3,47.8,413.4,46.7,412.1,46.7z"/>
					<path id="XMLID_28_" d="M425.9,25.8l-10,63.8c-0.2,1.2,0.8,2.3,2,2.3H428c1.7,0,3.1-1.2,3.4-2.9l9.9-62.6
						c0.2-1.2-0.8-2.4-2-2.4h-11.3C426.9,24.1,426,24.8,425.9,25.8z"/>
					<g>
						<path class="st0" d="M81.5,31.2c0.1-0.6,0.3-1.2,0.4-1.8C81.8,30,81.7,30.6,81.5,31.2C81.5,31.2,81.5,31.2,81.5,31.2z"/>
						<path class="st1" d="M43.1,59.8L43.1,59.8c18.8,0,33.6-7.4,38.4-28.7c0,0,0,0,0,0C76.7,52.4,61.9,59.8,43.1,59.8z"/>
						<path class="st1" d="M34.4,27c0.1-0.5,0.4-1,0.7-1.4C34.8,26,34.6,26.5,34.4,27z"/>
						<path class="st1" d="M78.4,25.7c0.1,0,0.2,0.1,0.3,0.1c0.1,0,0.1,0,0.1,0.1c0,0,0,0,0,0c0,0-0.1,0-0.1-0.1
							C78.6,25.8,78.5,25.8,78.4,25.7z"/>
						<path class="st1" d="M33.3,59.8L33.3,59.8c-2.4,0-4.3,1.7-4.7,4l0.1-0.9l-4.6,29.2h0l4.5-28.3C28.9,61.6,30.9,59.8,33.3,59.8z
							"/>
						<path d="M87.1,31c-1.3-1.5-2.9-2.7-4.8-3.7v0l0,0c-0.1,0.6-0.2,1.3-0.3,2c-0.1,0.6-0.3,1.2-0.4,1.8c1.1,0.7,2,1.4,2.8,2.3
							c1.6,1.8,2.6,4.2,3.1,6.9c0.5,2.8,0.3,6.2-0.4,10c-0.9,4.4-2.2,8.2-4.1,11.4c-1.7,2.9-3.9,5.3-6.5,7.1c-2.5,1.8-5.4,3.1-8.8,4
							c-3.2,0.8-6.9,1.3-11,1.3H54c-1.9,0-3.7,0.7-5.1,1.9c-1.4,1.2-2.4,2.9-2.7,4.7L46,81.8l-3.3,20.9l-0.2,0.8
							c0,0.2-0.1,0.4-0.2,0.4c-0.1,0.1-0.2,0.1-0.3,0.1H25.9v0l1.9-11.9l-3.7-0.1l-0.6,3.6l-1.4,9c-0.2,1.5,0.9,2.9,2.5,2.9H42
							c2.1,0,3.8-1.5,4.1-3.5l0.2-0.9l3.3-20.8l0.2-1.1c0.3-2,2.1-3.5,4.1-3.5h2.6c16.9,0,30.1-6.9,34-26.7
							C92.2,42.8,91.3,35.9,87.1,31z"/>
						<path d="M25.9,104.1L25.9,104.1l16.1,0c0.1,0,0.3-0.1,0.3-0.1c0.1-0.1,0.2-0.2,0.2-0.4l0.2-0.8L46,81.8l0.2-1.1
							c0.3-1.8,1.2-3.5,2.7-4.7c1.4-1.2,3.2-1.9,5.1-1.9h2.6c4,0,7.7-0.4,11-1.3c3.3-0.9,6.3-2.2,8.8-4c2.6-1.9,4.8-4.3,6.5-7.1
							c1.9-3.1,3.3-7,4.1-11.4c0.7-3.8,0.9-7.2,0.4-10c-0.4-2.8-1.5-5.1-3.1-6.9c-0.7-0.8-1.7-1.6-2.8-2.3
							c-4.9,21.3-19.7,28.7-38.4,28.7h0h-9.8c-2.4,0-4.3,1.7-4.7,4l-4.5,28.3l3.7,0.1L25.9,104.1z"/>
						<path class="st2" d="M78.6,27.1v2.4l1.9,1.1c0.4,0.2,0.7,0.4,1,0.6c0.1-0.6,0.3-1.2,0.4-1.8c0.1-0.7,0.2-1.3,0.3-2
							c-1.1-0.6-2.2-1.1-3.5-1.5c0,0.3-0.1,0.6-0.1,0.9L78.6,27.1z"/>
						<path class="st2" d="M82.3,27.4L82.3,27.4c-0.1,0.6-0.2,1.3-0.3,2C82.1,28.7,82.2,28,82.3,27.4z"/>
						<path d="M3.8,92.1L17.6,4.6c0-0.3,0.2-0.5,0.4-0.7c0.2-0.2,0.5-0.3,0.7-0.3h33.5C63.3,3.7,71,6,75,10.5
							c1.9,2.1,3.1,4.4,3.7,6.8c0.6,2.4,0.6,5.2,0.2,8.5c1.2,0.4,2.4,0.9,3.5,1.5c1.3-8.4,0-14.1-4.5-19.2c-5-5.7-14-8.1-25.5-8.1
							H18.7c-2.4,0-4.4,1.7-4.7,4L0,92.5c-0.3,1.7,1.1,3.3,2.8,3.3h20.7l0.6-3.6l-0.5,0H3.8z"/>
						<path d="M28.7,62.9l5.6-35.4c0-0.2,0.1-0.3,0.1-0.5c0.1-0.5,0.4-1,0.7-1.4c0.4-0.5,0.9-1,1.5-1.3c0.5-0.3,1.2-0.4,1.8-0.4
							h26.2c3.1,0,6,0.2,8.7,0.6c0.8,0.1,1.5,0.3,2.2,0.4c0.7,0.2,1.4,0.3,2.1,0.5c0.2,0.1,0.5,0.1,0.7,0.2c0.1,0,0.2,0.1,0.3,0.1
							c0,0,0.1,0,0.1,0.1c0.5-3.3,0.4-6.1-0.2-8.5c-0.6-2.5-1.8-4.7-3.7-6.8C71,6,63.3,3.7,52.2,3.7H18.7c-0.3,0-0.5,0.1-0.7,0.3
							c-0.2,0.2-0.3,0.4-0.4,0.7L3.8,92.1h19.9l0.5,0L28.7,63L28.7,62.9z"/>
						<path d="M36.7,24.4c0.6-0.3,1.2-0.4,1.8-0.4h26.2c3.1,0,6,0.2,8.7,0.6c0.8,0.1,1.5,0.3,2.2,0.4c0.7,0.2,1.4,0.3,2.1,0.5
							c0.2,0.1,0.5,0.1,0.7,0.2c-0.2-0.1-0.5-0.1-0.7-0.2c-0.7-0.2-1.4-0.4-2.1-0.5c-0.7-0.2-1.5-0.3-2.2-0.4
							c-2.6-0.4-5.6-0.6-8.7-0.6H38.5C37.8,23.9,37.2,24.1,36.7,24.4c-0.6,0.3-1.1,0.7-1.5,1.3C35.5,25.1,36,24.6,36.7,24.4z"/>
						<polygon points="34.3,27.5 28.7,62.9 28.7,63 28.7,62.9 						"/>
					</g>
				</g>
			</g>
		</g>
	</g>
</g>
</svg>
