<?xml version="1.0" encoding="utf-8"?>
<!-- Generator: Adobe Illustrator 21.0.2, SVG Export Plug-In . SVG Version: 6.00 Build 0)  -->
<svg version="1.1"
	 id="svg3003" inkscape:version="0.48.0 r9654" sodipodi:docname="Starbucks_Corporation_Logo_2011.svg" xmlns:cc="http://creativecommons.org/ns#" xmlns:dc="http://purl.org/dc/elements/1.1/" xmlns:inkscape="http://www.inkscape.org/namespaces/inkscape" xmlns:rdf="http://www.w3.org/1999/02/22-rdf-syntax-ns#" xmlns:sodipodi="http://sodipodi.sourceforge.net/DTD/sodipodi-0.dtd" xmlns:svg="http://www.w3.org/2000/svg"
	 xmlns="http://www.w3.org/2000/svg" xmlns:xlink="http://www.w3.org/1999/xlink" x="0px" y="0px" viewBox="0 0 253.2 254.5"
	 style="enable-background:new 0 0 253.2 254.5;" xml:space="preserve">
<style type="text/css">
	.st0{fill:none;}
</style>
<title  id="title3036">Starbucks Corporation
 Logo</title>
<sodipodi:namedview  bordercolor="#666666" borderopacity="1" gridtolerance="10" guidetolerance="10" id="namedview3015" inkscape:current-layer="svg3003" inkscape:cx="205.53579" inkscape:cy="162.90527" inkscape:pageopacity="0" inkscape:pageshadow="2" inkscape:window-height="750" inkscape:window-maximized="1" inkscape:window-width="1280" inkscape:window-x="-8" inkscape:window-y="-8" inkscape:zoom="2" objecttolerance="10" pagecolor="#ffffff" showgrid="false">
	</sodipodi:namedview>
<g>
	<path class="st0" d="M41.2,83.9c-0.9-8.6-4.4-16.5-11.7-22.2c-0.7-0.4-1.7-1.1-2.6-1.1c-0.5,0-1,0.2-1.4,0.9
		c3.3,20.4-9.9,34.6-19.3,50c3.1,2.6,8.1,2.2,11.9,1.4c9.9-4,19.4-10.9,31.2-8.5c3.5-6,9.4-11.7,14.2-16.5c2.9-2.6,7-4.2,9.1-7.1
		C62.9,74.3,50.4,80.4,41.2,83.9z"/>
	<path class="st0" d="M165.3,56c-0.6-5.5,3.6-11.3,4.6-16.8c-10.4,0.7-18.7,6.9-27.3,11.9c-2-4.8-4-9.7-6-14.5L148,25.9l0.3-1.4
		l-15.4-0.9c-2.6-4.6-3.7-10.2-6.8-14.5c-2.6,4.8-4.3,9.9-6.8,14.8L104,24.8v1.1l11.6,10.5c-1.4,5.4-2.7,11.3-6.2,15.4
		c-6.8-4.1-13.5-8.5-21-11.4c-1.8-0.6-4.4-1.5-6-0.3c2.4,5.2,5.7,10.8,5.1,16.5c-3.1-0.6-5.6-2.6-8.5-3.4c-3.5-1-7.7-2.8-11.1-1.7
		c5.7,8,10.3,16.3,11.9,25.8c18.9-9.1,40.8-14.1,63.7-10.2c10.7,1.7,20.5,6.1,30.1,9.6c0.4-10,6.7-18.1,11.1-26.2
		C177.7,50.3,171.8,54.3,165.3,56z M136.9,56c-7.1-0.8-14.6,0.2-21.3,0.3c-0.8-0.8-2.3-1.9-0.9-2.8l10.8-8.2
		c4.5,2.6,9.2,5.9,12.8,9.4L136.9,56z"/>
	<g>
		<path class="st0" d="M143.4,90.7c-0.4,0-0.7,0-1.1,0c-2,1.3-7.8,0.4-5.7,4.8c3.6-2.8,8.6-0.9,12.2,0.6c1.3-0.7,1-2,1.1-3.1
			C148.8,90.8,146.1,90.6,143.4,90.7z"/>
		<path class="st0" d="M121,110.9c0.2,0.8-0.5,1.9,0.6,2.3c3-0.7,8.5,1.6,10.2-2c-1.2-1.3-3.1-1.9-5.1-1.9
			C124.6,109.2,122.5,109.8,121,110.9z"/>
		<path class="st0" d="M115.9,118.5l0.3,1.7c3.7,2.5,4.8,6.6,10,6.3c4.5,0.3,8-4,10.2-7.4C130.2,118.3,122.7,119.6,115.9,118.5z"/>
		<path class="st0" d="M41.2,83.9c-0.9-8.6-4.4-16.5-11.7-22.2c-0.7-0.4-1.7-1.1-2.6-1.1c-0.5,0-1,0.2-1.4,0.9
			c3.3,20.4-9.9,34.6-19.3,50c3.1,2.6,8.1,2.2,11.9,1.4c9.9-4,19.4-10.9,31.2-8.5c3.5-6,9.4-11.7,14.2-16.5c2.9-2.6,7-4.2,9.1-7.1
			C62.9,74.3,50.4,80.4,41.2,83.9z"/>
		<path class="st0" d="M104.8,96.1c2.9-4.1,8.1-0.9,11.4-0.6v-1.1c-1.8-2.8-5.4-4.2-9.1-4c-0.9,0-1.7,0.2-2.6,0.3
			c-1.2,0.3-2.1,1.4-1.7,2.8C102.6,94.8,102.9,97,104.8,96.1z"/>
		<path class="st0" d="M246.6,111.4c-8.9-14.8-22.2-28.4-18.5-47.7c0.4-1.3-0.5-2.7-1.7-2.8c-5.8,2.4-10.2,8.1-12.5,13.6
			c-0.9,3.3-1.5,6.8-2.8,9.9c-6.9-3.6-14.3-7.1-22.7-6.2c-3,0.4-7.4,0.6-8,3.7c9.6,5.1,17.4,13.6,23.3,22.7
			c4.1-0.7,9.1-0.1,13.3,0.6C226.7,107.8,236.4,118.3,246.6,111.4z"/>
		<path class="st0" d="M165.3,56c-0.6-5.5,3.6-11.3,4.6-16.8c-10.4,0.7-18.7,6.9-27.3,11.9c-2-4.8-4-9.7-6-14.5L148,25.9l0.3-1.4
			l-15.4-0.9c-2.6-4.6-3.7-10.2-6.8-14.5c-2.6,4.8-4.3,9.9-6.8,14.8L104,24.8v1.1l11.6,10.5c-1.4,5.4-2.7,11.3-6.2,15.4
			c-6.8-4.1-13.5-8.5-21-11.4c-1.8-0.6-4.4-1.5-6-0.3c2.4,5.2,5.7,10.8,5.1,16.5c-3.1-0.6-5.6-2.6-8.5-3.4c-3.5-1-7.7-2.8-11.1-1.7
			c5.7,8,10.3,16.3,11.9,25.8c18.9-9.1,40.8-14.1,63.7-10.2c10.7,1.7,20.5,6.1,30.1,9.6c0.4-10,6.7-18.1,11.1-26.2
			C177.7,50.3,171.8,54.3,165.3,56z"/>
		<g>
			<path class="st0" d="M134.9,71.7c-2.7-0.3-5.5-0.6-8.3-0.6c-0.5,0-1,0-1.6,0c-7.8,0.2-15.2,2.1-19.7,8.5c-0.7,1.8-3.5,4.3-0.9,6
				c6-0.4,12.8-1.1,16.8,4c0,4.5,2.9,10.6-2,12.8c-4.1-3.8-8.9,1.6-13.3-1.4c-2.1-1.2-3.4,0.2-4.3,2c-1.2,11.7,4.9,24.7,15.9,31.2
				c4.4,1.6,10.4,3.1,15.1,0.9c11.2-5.2,15.8-17.1,17.9-28.1c-0.3-2.1-0.2-6.2-3.1-6.3c-3.3,2.1-8.1,0.9-11.7,0
				c-2.1,0.7-2.2,3.7-4.5,4.3l-1.4-1.1c-1.2-5.2-2-12.6,2.8-16.2c5.4-2.2,11.7-3.1,17.3-1.4c1-1.8-0.6-3.2-0.9-4.8
				C146.5,75.5,140.4,73.1,134.9,71.7z"/>
			<path class="st0" d="M143.4,90.7c-0.4,0-0.7,0-1.1,0c-2,1.3-7.8,0.4-5.7,4.8c3.6-2.8,8.6-0.9,12.2,0.6c1.3-0.7,1-2,1.1-3.1
				C148.8,90.8,146.1,90.6,143.4,90.7z"/>
			<path class="st0" d="M104.8,96.1c2.9-4.1,8.1-0.9,11.4-0.6v-1.1c-1.8-2.8-5.4-4.2-9.1-4c-0.9,0-1.7,0.2-2.6,0.3
				c-1.2,0.3-2.1,1.4-1.7,2.8C102.6,94.8,102.9,97,104.8,96.1z"/>
			<path class="st0" d="M41.2,83.9c-0.9-8.6-4.4-16.5-11.7-22.2c-0.7-0.4-1.7-1.1-2.6-1.1c-0.5,0-1,0.2-1.4,0.9
				c3.3,20.4-9.9,34.6-19.3,50c3.1,2.6,8.1,2.2,11.9,1.4c9.9-4,19.4-10.9,31.2-8.5c3.5-6,9.4-11.7,14.2-16.5c2.9-2.6,7-4.2,9.1-7.1
				C62.9,74.3,50.4,80.4,41.2,83.9z"/>
			<path class="st0" d="M165.3,56c-0.6-5.5,3.6-11.3,4.6-16.8c-10.4,0.7-18.7,6.9-27.3,11.9c-2-4.8-4-9.7-6-14.5L148,25.9l0.3-1.4
				l-15.4-0.9c-2.6-4.6-3.7-10.2-6.8-14.5c-2.6,4.8-4.3,9.9-6.8,14.8L104,24.8v1.1l11.6,10.5c-1.4,5.4-2.7,11.3-6.2,15.4
				c-6.8-4.1-13.5-8.5-21-11.4c-1.8-0.6-4.4-1.5-6-0.3c2.4,5.2,5.7,10.8,5.1,16.5c-3.1-0.6-5.6-2.6-8.5-3.4c-3.5-1-7.7-2.8-11.1-1.7
				c5.7,8,10.3,16.3,11.9,25.8c18.9-9.1,40.8-14.1,63.7-10.2c10.7,1.7,20.5,6.1,30.1,9.6c0.4-10,6.7-18.1,11.1-26.2
				C177.7,50.3,171.8,54.3,165.3,56z"/>
			<path class="st0" d="M246.6,111.4c-8.9-14.8-22.2-28.4-18.5-47.7c0.4-1.3-0.5-2.7-1.7-2.8c-5.8,2.4-10.2,8.1-12.5,13.6
				c-0.9,3.3-1.5,6.8-2.8,9.9c-6.9-3.6-14.3-7.1-22.7-6.2c-3,0.4-7.4,0.6-8,3.7c9.6,5.1,17.4,13.6,23.3,22.7
				c4.1-0.7,9.1-0.1,13.3,0.6C226.7,107.8,236.4,118.3,246.6,111.4z"/>
			<g>
				<path class="st0" d="M41.2,83.9c-0.9-8.6-4.4-16.5-11.7-22.2c-0.7-0.4-1.7-1.1-2.6-1.1c-0.5,0-1,0.2-1.4,0.9
					c3.3,20.4-9.9,34.6-19.3,50c3.1,2.6,8.1,2.2,11.9,1.4c9.9-4,19.4-10.9,31.2-8.5c3.5-6,9.4-11.7,14.2-16.5c2.9-2.6,7-4.2,9.1-7.1
					C62.9,74.3,50.4,80.4,41.2,83.9z"/>
				<path class="st0" d="M134.9,71.7c-2.7-0.3-5.5-0.6-8.3-0.6c-0.5,0-1,0-1.6,0c-7.8,0.2-15.2,2.1-19.7,8.5c-0.7,1.8-3.5,4.3-0.9,6
					c6-0.4,12.8-1.1,16.8,4c0,4.5,2.9,10.6-2,12.8c-4.1-3.8-8.9,1.6-13.3-1.4c-2.1-1.2-3.4,0.2-4.3,2c-1.2,11.7,4.9,24.7,15.9,31.2
					c4.4,1.6,10.4,3.1,15.1,0.9c11.2-5.2,15.8-17.1,17.9-28.1c-0.3-2.1-0.2-6.2-3.1-6.3c-3.3,2.1-8.1,0.9-11.7,0
					c-2.1,0.7-2.2,3.7-4.5,4.3l-1.4-1.1c-1.2-5.2-2-12.6,2.8-16.2c5.4-2.2,11.7-3.1,17.3-1.4c1-1.8-0.6-3.2-0.9-4.8
					C146.5,75.5,140.4,73.1,134.9,71.7z"/>
				<path class="st0" d="M104.8,96.1c2.9-4.1,8.1-0.9,11.4-0.6v-1.1c-1.8-2.8-5.4-4.2-9.1-4c-0.9,0-1.7,0.2-2.6,0.3
					c-1.2,0.3-2.1,1.4-1.7,2.8C102.6,94.8,102.9,97,104.8,96.1z"/>
				<path class="st0" d="M165.3,56c-0.6-5.5,3.6-11.3,4.6-16.8c-10.4,0.7-18.7,6.9-27.3,11.9c-2-4.8-4-9.7-6-14.5L148,25.9l0.3-1.4
					l-15.4-0.9c-2.6-4.6-3.7-10.2-6.8-14.5c-2.6,4.8-4.3,9.9-6.8,14.8L104,24.8v1.1l11.6,10.5c-1.4,5.4-2.7,11.3-6.2,15.4
					c-6.8-4.1-13.5-8.5-21-11.4c-1.8-0.6-4.4-1.5-6-0.3c2.4,5.2,5.7,10.8,5.1,16.5c-3.1-0.6-5.6-2.6-8.5-3.4
					c-3.5-1-7.7-2.8-11.1-1.7c5.7,8,10.3,16.3,11.9,25.8c18.9-9.1,40.8-14.1,63.7-10.2c10.7,1.7,20.5,6.1,30.1,9.6
					c0.4-10,6.7-18.1,11.1-26.2C177.7,50.3,171.8,54.3,165.3,56z"/>
				<path class="st0" d="M246.6,111.4c-8.9-14.8-22.2-28.4-18.5-47.7c0.4-1.3-0.5-2.7-1.7-2.8c-5.8,2.4-10.2,8.1-12.5,13.6
					c-0.9,3.3-1.5,6.8-2.8,9.9c-6.9-3.6-14.3-7.1-22.7-6.2c-3,0.4-7.4,0.6-8,3.7c9.6,5.1,17.4,13.6,23.3,22.7
					c4.1-0.7,9.1-0.1,13.3,0.6C226.7,107.8,236.4,118.3,246.6,111.4z"/>
				<g>
					<path class="st0" d="M134.9,71.7c-2.7-0.3-5.5-0.6-8.3-0.6c-0.5,0-1,0-1.6,0c-7.8,0.2-15.2,2.1-19.7,8.5
						c-0.7,1.8-3.5,4.3-0.9,6c6-0.4,12.8-1.1,16.8,4c0,4.5,2.9,10.6-2,12.8c-4.1-3.8-8.9,1.6-13.3-1.4c-2.1-1.2-3.4,0.2-4.3,2
						c-1.2,11.7,4.9,24.7,15.9,31.2c4.4,1.6,10.4,3.1,15.1,0.9c11.2-5.2,15.8-17.1,17.9-28.1c-0.3-2.1-0.2-6.2-3.1-6.3
						c-3.3,2.1-8.1,0.9-11.7,0c-2.1,0.7-2.2,3.7-4.5,4.3l-1.4-1.1c-1.2-5.2-2-12.6,2.8-16.2c5.4-2.2,11.7-3.1,17.3-1.4
						c1-1.8-0.6-3.2-0.9-4.8C146.5,75.5,140.4,73.1,134.9,71.7z"/>
					<path class="st0" d="M165.3,56c-0.6-5.5,3.6-11.3,4.6-16.8c-10.4,0.7-18.7,6.9-27.3,11.9c-2-4.8-4-9.7-6-14.5L148,25.9l0.3-1.4
						l-15.4-0.9c-2.6-4.6-3.7-10.2-6.8-14.5c-2.6,4.8-4.3,9.9-6.8,14.8L104,24.8v1.1l11.6,10.5c-1.4,5.4-2.7,11.3-6.2,15.4
						c-6.8-4.1-13.5-8.5-21-11.4c-1.8-0.6-4.4-1.5-6-0.3c2.4,5.2,5.7,10.8,5.1,16.5c-3.1-0.6-5.6-2.6-8.5-3.4
						c-3.5-1-7.7-2.8-11.1-1.7c5.7,8,10.3,16.3,11.9,25.8c18.9-9.1,40.8-14.1,63.7-10.2c10.7,1.7,20.5,6.1,30.1,9.6
						c0.4-10,6.7-18.1,11.1-26.2C177.7,50.3,171.8,54.3,165.3,56z"/>
					<path class="st0" d="M104.8,96.1c2.9-4.1,8.1-0.9,11.4-0.6v-1.1c-1.8-2.8-5.4-4.2-9.1-4c-0.9,0-1.7,0.2-2.6,0.3
						c-1.2,0.3-2.1,1.4-1.7,2.8C102.6,94.8,102.9,97,104.8,96.1z"/>
					<path class="st0" d="M41.2,83.9c-0.9-8.6-4.4-16.5-11.7-22.2c-0.7-0.4-1.7-1.1-2.6-1.1c-0.5,0-1,0.2-1.4,0.9
						c3.3,20.4-9.9,34.6-19.3,50c3.1,2.6,8.1,2.2,11.9,1.4c9.9-4,19.4-10.9,31.2-8.5c3.5-6,9.4-11.7,14.2-16.5
						c2.9-2.6,7-4.2,9.1-7.1C62.9,74.3,50.4,80.4,41.2,83.9z"/>
					<path class="st0" d="M246.6,111.4c-8.9-14.8-22.2-28.4-18.5-47.7c0.4-1.3-0.5-2.7-1.7-2.8c-5.8,2.4-10.2,8.1-12.5,13.6
						c-0.9,3.3-1.5,6.8-2.8,9.9c-6.9-3.6-14.3-7.1-22.7-6.2c-3,0.4-7.4,0.6-8,3.7c9.6,5.1,17.4,13.6,23.3,22.7
						c4.1-0.7,9.1-0.1,13.3,0.6C226.7,107.8,236.4,118.3,246.6,111.4z"/>
					<path d="M251.1,131.3c-14.7,5.8-24.3-8.9-38.3-8.8c-1.8-2.1-2.3-4.6-3.1-7.1c15.8-5.1,26.2,17.7,41.8,6
						c-1.2-19.2-5.3-37.3-14.2-53.4c-9.3-18.4-26.4-36.5-44.3-47.5C174.4,7.5,149.7,1,125.1,1.2c-20.3,0.2-40.5,4.9-56.7,14.2
						C28.4,35.8,4.2,77.1,1.1,119.9l1.1,2.3c15.1,8.1,24.8-9.7,39.5-7.7c3.3,1.5-0.7,4.1-0.6,6.2c-1.1,2.8-5.1,1.5-7.7,2.3
						c-10,4.4-20.4,12.8-32.1,8.2c0,0,0.1,0.9,0.2,2.1h0c0.2,3.2,0.7,8.9,0.7,8.9c13.2,4.2,21.7-9.6,34.1-8c-0.3,2.7-0.5,5.7-2,7.7
						c-11.4,0.6-18.5,11.3-30.4,10.5l2.3,9.1c10.3,1,17-9.6,27.3-8.5l-0.3,6.8c-9.1,0.9-15,9.4-24.1,9.9c1.2,21,15.8-3.2,25,0.9
						c0.4,2.3,1.7,4.5,0.9,6.8c-7.4-0.1-12,6.4-18.5,8.5c1.1,2.7,1.9,6.4,4.8,7.4c5.5-2.3,10-7.1,16.5-6.8c-0.8-2.5-1.4-5.8-1.1-8
						c8.2,2.2,13-4.3,18.8-8c1.3-11.7,9.5-20.5,14.5-30.7c0.5-2.2,0.7-4.5,0.7-6.7c-0.3-12.3-7.7-24.2-1.8-37.1
						c1.8-5,4.9-11.6,10.2-13.1c-9.8,11.7-8,29.4-2.8,42.6c1,2.7,1.4,5.2,1.3,7.5c-0.4,10.4-10.1,18.3-13.8,27.7
						c-4.6,9.4-0.4,20.1,4.8,27.8c-7.5,5.8-14.4,13.2-24.1,13.3c-2.7-1.3-2.8-5.1-4.3-7.7c-5.8-1.1-10.4,2.8-15,5.7l5.4,6.8
						c4-1.9,8.5-6,13.1-3.1c6.7,8-6.6,4-8.3,8.8c1.9,2.6,4.2,4.4,6.5,6.5c2.7-0.9,4.9-3,8.2-2.6c1.3,1.6,2.8,3.2,3.4,5.1l-5.1,3.1
						c3.7,3.8,8.3,7.4,12.8,9.1c2.7-8.9,9.8-15.8,13.1-24.4c0.7-3.3,0.8-7.3,1.7-10.2c9.6,14.9-10.5,23.7-10.5,37.8
						c2.1,1.9,4.6,2.9,7.1,4c-0.4-11.1,8.9-18.2,12.8-27.6c7.1-14.9-9.3-24.1-14.5-36.1c-4.9-10.8,2-20.9,8.8-29
						c4.7-5.1,6-10.1,5.6-15.2c-0.9-11.4-10.4-22.9-6.4-35.7c2.3-8,5.7-17.4,13.9-20.7c-6,6.9-9.1,15-9.7,24.1
						c-1.7,12.5,8.3,21.2,8.9,32.3c0.1,2.2-0.2,4.5-1,7c-4.6,10-15.1,17.6-15.1,29.5c-1.2,15.7,19.3,21.7,17,37.8
						c-0.2,14-16.3,21.8-12.8,36.9l8.8,2.9c-5-17,12.7-26.5,12.8-41.8c0.9-12.9-13-19.6-16.5-30.7c-3.7-11,4.4-19.8,10.5-28.1
						c3-4.7,3.7-9.1,3.3-13.5c-1.2-10.7-9.9-20.8-9.5-32.5c-0.2-10.8,4.5-21.4,13.9-26.4c-2.8,4.1-6.1,7.9-7.7,12.5
						c-5.9,15.9,4,29.6,8.8,43.2c0.4,1.1,0.6,2.2,0.8,3.3c1.8,12.6-11.1,20.7-13.6,32.2c-3.3,14,11.8,20.5,15.1,32.1
						c7.1,19-15.9,30.1-10.5,49.1c-0.1,5.6,6.4,3.4,9.9,4.6c-8.5-15.7,5.2-28.7,9.4-42.3c4.6-14.6-9.3-22.8-15-34.1
						c-6.1-12.7,7.7-20.5,10.8-31.2c2.5-7.3,9.1-0.6,13.4-1.4c5.8,1.1,10.8-4.6,15.6-0.6c2.4,9.7,13.5,15.6,13.6,26.1
						c-0.4,16.3-23.9,24.8-16.5,42.6c6.2,12.4,16.7,26.6,9.7,40.9l8.8-2c5.9-14.7-5-26-10.2-37.8c-4.7-13.5,7.1-23.7,14.2-34.1
						c6.7-12.6-4.1-22.9-10.2-32.7c-2.1-4-2.6-7.8-2-11.5c1.1-7.8,6.4-15,8.9-22.3c5.2-12.4,2.3-27.8-7.4-37.2l0.3-0.3
						c4.8,2.8,9.2,7.9,11.4,12.8c8.3,16.7-3.6,31.4-6.5,47l-0.3,1.8c-0.3,11,8.7,16.2,13.1,25c7.3,14.2-5.6,24.2-12.8,34.9
						c-11.7,20,16.2,31.7,10.5,51.7l8.5-2.8c2.2-10.7-5.9-19.4-11.1-28.1c-7.2-14.6,5.7-25.9,13.1-36.9c6.5-13.8-4.8-25.5-11.4-36.1
						c-2.1-3.1-2.8-6.3-2.6-9.5h0c0.3-6.2,3.8-12.5,6.2-17.8c4.9-13.3,1.5-29.3-7.1-39.2c5.8,2.4,10,8.8,11.9,14.5
						c6.8,14.1-1.5,28.2-4.3,41.5l0,1c-0.1,12.7,11.9,19.7,15.4,31.1c3.3,11.8-6,19.9-11.6,28.4c-16.8,17.4,9.4,30.5,9.1,47.7
						c2.5-1,5.7-1.5,7.1-4c-1.2-9.6-9.4-16.3-12.8-25c-0.2-4.2-1.1-9.3,1.7-12.5l0.6,0.6c-1,13.9,11.1,22.3,14.8,34.4
						c4.3-2.6,8.7-5,12.2-8.8c-1.3-1.3-3.3-2.4-5.1-3.1c-1-2.1,1.8-4.1,3.1-6l7.9,2.8c2.4-2.2,4.9-4,6.3-6.8c-2.8-2-6-3.4-9.4-4
						c-0.1-2.2,1.1-3.9,2.5-5.4c4.8-0.2,8.6,2.1,12.5,4c2.1-1.9,4.4-4.3,5.1-7.1l-10.2-5.1c-7-4.4-5.1,5.2-8.5,7.4
						c-9.6-0.4-16.4-7.1-23.6-13.1c0.9-4.3,4.3-7.7,5.4-11.9c4.2-13.9-6.9-24.4-13.1-35.5c-1.5-2.7-2.1-5.4-2.1-8.1
						c0.1-7.5,4.7-15.1,4.9-22.9c2.4-10.1-2.4-19.9-6.3-28.1c2.7,1.6,5.5,3.8,7.1,6.5c5.3,10.4,6.8,24.9,2,36.1
						c-1.2,3-1.6,5.8-1.4,8.4c0.8,13.1,15.5,22.2,15.6,36.2c5.7,4.3,10.8,11.4,18.5,9.1c0.6,2.7-0.9,5.7-0.9,8.2
						c6.8-0.4,11.4,4.7,17.3,6.5c1.4-2.5,3.9-4.9,3.7-7.7c-6.7-2-11.6-8.6-19-8.8l1.4-6.5c7.9-0.2,13.6,6.4,21,8.2
						c2.6-1.9,3.4-5.4,4.3-8.5c-9.1-1.4-15.6-9.1-24.7-10.5c0.2-2.3-0.5-4.9,0.6-6.8c8.6,0,14.3,6.9,22.2,8.8
						c7.6,3.6,5.1-5.4,6.8-8.8c-12,0.5-19.3-10.7-31-11.1l-1.4-7.1c12.6-2.1,21.1,11.7,34.1,8c1.3-3.3,1-6,0.9-9.2L251.1,131.3z
						 M63.6,87.9c-4.8,4.7-10.7,10.5-14.2,16.5c-11.8-2.4-21.3,4.5-31.2,8.5c-3.8,0.7-8.8,1.1-11.9-1.4c9.4-15.4,22.6-29.6,19.3-50
						c0.4-0.7,0.9-0.9,1.4-0.9c0.9,0.1,1.9,0.8,2.6,1.1c7.3,5.7,10.8,13.5,11.7,22.2c9.2-3.5,21.7-9.6,31.5-3.1
						C70.6,83.7,66.6,85.3,63.6,87.9z M104.5,90.7c0.8-0.2,1.7-0.3,2.6-0.3c3.7-0.1,7.3,1.3,9.1,4v1.1c-3.2-0.3-8.4-3.5-11.4,0.6
						c-1.9,0.8-2.2-1.3-2-2.6C102.4,92.1,103.3,91,104.5,90.7z M149.1,81.3c0.3,1.6,1.9,3,0.9,4.8c-5.6-1.7-11.9-0.8-17.3,1.4
						c-4.8,3.6-4.1,11-2.8,16.2l1.4,1.1c2.4-0.6,2.5-3.6,4.5-4.3c3.5,0.9,8.3,2.1,11.7,0c2.9,0.1,2.8,4.2,3.1,6.3
						c-2.1,11-6.7,22.9-17.9,28.1c-4.6,2.3-10.6,0.8-15.1-0.9c-11-6.5-17.1-19.5-15.9-31.2c0.9-1.8,2.2-3.2,4.3-2
						c4.4,3,9.3-2.4,13.3,1.4c4.9-2.2,2-8.2,2-12.8c-4-5.1-10.8-4.4-16.8-4c-2.7-1.6,0.2-4.1,0.9-6c4.5-6.4,11.9-8.4,19.7-8.5
						c0.5,0,1,0,1.6,0c2.8,0,5.6,0.3,8.3,0.6C140.4,73.1,146.5,75.5,149.1,81.3z M150,93c-0.1,1.1,0.2,2.5-1.1,3.1
						c-3.6-1.4-8.6-3.4-12.2-0.6c-2.1-4.5,3.7-3.5,5.7-4.8c0.4,0,0.7,0,1.1,0C146.1,90.6,148.8,90.8,150,93z M173.6,76.8
						c-9.6-3.6-19.4-7.9-30.1-9.6c-22.8-3.9-44.8,1.1-63.7,10.2c-1.6-9.6-6.2-17.9-11.9-25.8c3.4-1.1,7.6,0.7,11.1,1.7
						c2.9,0.8,5.4,2.8,8.5,3.4c0.6-5.7-2.8-11.3-5.1-16.5c1.6-1.2,4.2-0.3,6,0.3c7.5,2.8,14.2,7.3,21,11.4c3.5-4.1,4.8-10,6.2-15.4
						L104,25.9v-1.1l15.3-0.9c2.6-4.8,4.3-9.9,6.8-14.8c3.1,4.3,4.2,9.8,6.8,14.5l15.4,0.9l-0.3,1.4l-11.4,10.8c2,4.8,4,9.7,6,14.5
						c8.6-5,16.9-11.3,27.3-11.9c-1,5.5-5.1,11.3-4.6,16.8c6.4-1.8,12.3-5.8,19.3-5.4C180.3,58.7,174,66.8,173.6,76.8z M203.7,104.6
						c-5.9-9.1-13.7-17.6-23.3-22.7c0.6-3.1,4.9-3.3,8-3.7c8.4-0.8,15.8,2.6,22.7,6.2c1.3-3.1,1.9-6.6,2.8-9.9
						c2.3-5.6,6.8-11.3,12.5-13.6c1.2,0.2,2.1,1.5,1.7,2.8c-3.7,19.3,9.6,33,18.5,47.7c-10.2,6.8-19.9-3.7-29.6-6.2
						C212.8,104.5,207.8,104,203.7,104.6z"/>
				</g>
			</g>
		</g>
	</g>
	<path d="M114.8,53.5c-1.4,1,0.1,2.1,0.9,2.8c6.7-0.1,14.2-1,21.3-0.3l1.4-1.4c-3.6-3.5-8.3-6.8-12.8-9.4L114.8,53.5z"/>
	<path d="M115.9,118.5l0.3,1.7c3.7,2.5,4.8,6.6,10,6.3c4.5,0.3,8-4,10.2-7.4C130.2,118.3,122.7,119.6,115.9,118.5z"/>
	<path d="M121,110.9c0.2,0.8-0.5,1.9,0.6,2.3c3-0.7,8.5,1.6,10.2-2c-1.2-1.3-3.1-1.9-5.1-1.9C124.6,109.2,122.5,109.8,121,110.9z"/>
</g>
</svg>
