<?xml version="1.0" encoding="utf-8"?>
<!-- Generator: Adobe Illustrator 21.0.2, SVG Export Plug-In . SVG Version: 6.00 Build 0)  -->
<svg version="1.1"
	 id="svg3003" inkscape:version="0.48.0 r9654" sodipodi:docname="Starbucks_Corporation_Logo_2011.svg" xmlns:cc="http://creativecommons.org/ns#" xmlns:dc="http://purl.org/dc/elements/1.1/" xmlns:inkscape="http://www.inkscape.org/namespaces/inkscape" xmlns:rdf="http://www.w3.org/1999/02/22-rdf-syntax-ns#" xmlns:sodipodi="http://sodipodi.sourceforge.net/DTD/sodipodi-0.dtd" xmlns:svg="http://www.w3.org/2000/svg"
	 xmlns="http://www.w3.org/2000/svg" xmlns:xlink="http://www.w3.org/1999/xlink" x="0px" y="0px"
	 viewBox="30.214 17.065 253.238 254.537" enable-background="new 30.214 17.065 253.238 254.537" xml:space="preserve">
<title  id="title3036">Starbucks Corporation
 Logo</title>
<sodipodi:namedview  bordercolor="#666666" borderopacity="1" gridtolerance="10" guidetolerance="10" id="namedview3015" inkscape:current-layer="svg3003" inkscape:cx="205.53579" inkscape:cy="162.90527" inkscape:pageopacity="0" inkscape:pageshadow="2" inkscape:window-height="750" inkscape:window-maximized="1" inkscape:window-width="1280" inkscape:window-x="-8" inkscape:window-y="-8" inkscape:zoom="2" objecttolerance="10" pagecolor="#ffffff" showgrid="false">
	</sodipodi:namedview>
<g id="g3810" transform="matrix(0.9859852,0,0,0.9859852,6.3329273,9.503705)">
	
		<path id="path3040" sodipodi:cx="124.45079" sodipodi:cy="127.11239" sodipodi:rx="130.10765" sodipodi:ry="131.87541" sodipodi:type="arc" fill="#FFFFFF" d="
		M281.058,136.746c0,71.287-57.494,129.078-128.418,129.078c-70.924,0-128.419-57.79-128.419-129.078S81.716,7.668,152.64,7.668
		C223.564,7.668,281.058,65.459,281.058,136.746L281.058,136.746z"/>
	<g id="g3025" transform="matrix(2.8204897,0,0,2.8204897,-631.98629,-1141.6773)">
		<path id="inner_artwork" inkscape:connector-curvature="0" d="M277.808,423.768c1.603,0.924,3.303,2.113,4.597,3.373l-0.508,0.511
			c-2.554-0.271-5.244,0.067-7.665,0.105c-0.27-0.272-0.814-0.682-0.307-1.024L277.808,423.768L277.808,423.768z M322.967,455.493
			c0.034,1.152,0.142,2.143-0.308,3.323c-4.666,1.327-7.73-3.613-12.258-2.868l0.512,2.561c4.188,0.138,6.804,4.154,11.131,3.981
			c-0.615,1.227,0.274,4.462-2.449,3.169c-2.827-0.679-4.871-3.169-7.969-3.169c-0.374,0.686-0.137,1.636-0.203,2.448
			c3.268,0.512,5.619,3.275,8.886,3.785c-0.307,1.123-0.612,2.38-1.532,3.065c-2.658-0.647-4.734-3.034-7.564-2.966l-0.504,2.351
			c2.689,0.069,4.427,2.448,6.843,3.163c0.066,0.992-0.82,1.878-1.331,2.763c-2.146-0.644-3.782-2.488-6.233-2.351
			c-0.034-0.924,0.514-1.973,0.307-2.96c-2.753,0.819-4.6-1.739-6.64-3.274c-0.059-5.022-5.345-8.316-5.625-13.021
			c-0.054-0.938,0.089-1.939,0.517-3.015c1.738-4.018,1.192-9.233-0.713-12.979c-0.579-0.986-1.605-1.764-2.561-2.344
			c1.399,2.964,3.103,6.466,2.253,10.11c-0.099,2.813-1.759,5.516-1.778,8.228c-0.007,0.967,0.2,1.934,0.756,2.911
			c2.215,3.989,6.2,7.765,4.702,12.768c-0.412,1.537-1.639,2.725-1.945,4.289c2.591,2.146,5.041,4.565,8.48,4.701
			c1.225-0.782,0.545-4.252,3.064-2.652l3.681,1.84c-0.268,0.985-1.093,1.868-1.84,2.546c-1.396-0.68-2.758-1.494-4.499-1.428
			c-0.513,0.545-0.955,1.156-0.916,1.938c1.225,0.202,2.349,0.718,3.372,1.435c-0.475,1.023-1.401,1.664-2.252,2.448l-2.855-1.021
			c-0.477,0.682-1.467,1.399-1.119,2.147c0.644,0.276,1.359,0.649,1.833,1.126c-1.26,1.362-2.857,2.238-4.394,3.163
			c-1.324-4.326-5.685-7.359-5.31-12.362l-0.203-0.203c-1.025,1.153-0.683,2.996-0.616,4.492c1.227,3.133,4.154,5.554,4.597,8.99
			c-0.512,0.885-1.668,1.06-2.554,1.435c0.103-6.196-9.295-10.895-3.269-17.162c2.01-3.069,5.378-5.997,4.184-10.223
			c-1.225-4.079-5.558-6.607-5.52-11.18l0.007-0.357c0.987-4.769,3.985-9.843,1.532-14.916c-0.684-2.041-2.211-4.359-4.288-5.213
			c3.097,3.545,4.325,9.329,2.553,14.098c-0.893,1.898-2.122,4.158-2.246,6.388h-0.008c-0.065,1.165,0.172,2.323,0.924,3.421
			c2.351,3.816,6.436,8.006,4.086,12.979c-2.656,3.983-7.287,8.034-4.701,13.279c1.873,3.133,4.77,6.259,3.988,10.11l-3.065,1.021
			c2.043-7.183-7.97-11.404-3.778-18.59c2.588-3.848,7.217-7.458,4.596-12.565c-1.566-3.164-4.803-5.037-4.701-8.991l0.112-0.664
			c1.055-5.608,5.318-10.917,2.337-16.91c-0.783-1.77-2.349-3.573-4.086-4.596l-0.105,0.105c3.475,3.371,4.532,8.918,2.659,13.377
			c-0.874,2.616-2.793,5.221-3.183,8.025c-0.186,1.322-0.029,2.692,0.735,4.135c2.213,3.505,6.094,7.222,3.672,11.754
			c-2.55,3.743-6.809,7.384-5.108,12.251c1.874,4.258,5.785,8.314,3.673,13.594l-3.162,0.714c2.519-5.145-1.259-10.251-3.471-14.714
			c-2.692-6.403,5.783-9.468,5.919-15.322c-0.032-3.778-4.049-5.923-4.898-9.397c-1.738-1.466-3.54,0.583-5.619,0.203
			c-1.534,0.308-3.891-2.112-4.807,0.511c-1.091,3.846-6.059,6.673-3.876,11.235c2.078,4.054,7.079,7.018,5.409,12.265
			c-1.496,4.9-6.437,9.566-3.372,15.218c-1.259-0.408-3.61,0.373-3.576-1.638c-1.94-6.844,6.334-10.832,3.778-17.673
			c-1.189-4.19-6.608-6.505-5.415-11.544c0.882-4.149,5.537-7.049,4.884-11.593c-0.053-0.381-0.146-0.77-0.28-1.176
			c-1.737-4.903-5.282-9.808-3.169-15.531c0.58-1.635,1.738-3.031,2.757-4.492c-3.371,1.804-5.072,5.62-5.002,9.501
			c-0.147,4.221,2.971,7.836,3.415,11.699c0.175,1.558-0.081,3.155-1.169,4.848c-2.212,3.001-5.104,6.165-3.778,10.117
			c1.261,3.986,6.232,6.401,5.926,11.034c-0.034,5.481-6.402,8.893-4.597,15.022l-3.169-1.029
			c-1.259-5.446,4.529-8.233,4.596-13.272c0.819-5.795-6.572-7.945-6.128-13.594c-0.032-4.293,3.746-7.011,5.415-10.621
			c0.286-0.879,0.381-1.709,0.343-2.505c-0.204-3.992-3.801-7.113-3.204-11.601c0.201-3.303,1.325-6.198,3.471-8.682
			c-2.961,1.189-4.184,4.598-5.002,7.459c-1.419,4.588,1.969,8.714,2.308,12.824c0.151,1.815-0.293,3.619-2,5.464
			c-2.453,2.891-4.941,6.539-3.17,10.424c1.875,4.287,7.768,7.624,5.212,12.971c-1.394,3.372-4.733,5.924-4.596,9.907
			c-0.885-0.375-1.802-0.748-2.554-1.427c0-5.073,7.217-8.242,3.778-13.587c-0.305,1.055-0.37,2.488-0.609,3.68
			c-1.193,3.101-3.746,5.582-4.702,8.787c-1.598-0.616-3.268-1.912-4.597-3.274l1.841-1.127c-0.205-0.683-0.749-1.261-1.225-1.84
			c-1.195-0.168-1.98,0.616-2.966,0.924c-0.851-0.751-1.673-1.432-2.351-2.351c0.611-1.74,5.385-0.301,2.967-3.163
			c-1.633-1.021-3.272,0.438-4.702,1.119l-1.938-2.448c1.668-1.021,3.333-2.454,5.408-2.043c0.511,0.921,0.547,2.276,1.532,2.757
			c3.508-0.068,5.994-2.721,8.683-4.8c-1.875-2.789-3.4-6.639-1.735-10.012c1.334-3.38,4.81-6.226,4.967-9.963
			c0.036-0.85-0.097-1.745-0.469-2.708c-1.838-4.734-2.487-11.133,1.021-15.323c-1.908,0.513-3.032,2.89-3.68,4.695
			c-2.109,4.623,0.559,8.905,0.65,13.336c0.013,0.796-0.052,1.595-0.245,2.399c-1.806,3.644-4.731,6.84-5.206,11.033
			c-2.078,1.325-3.784,3.643-6.745,2.861c-0.104,0.782,0.134,1.975,0.406,2.861c-2.348-0.099-3.949,1.632-5.926,2.449
			c-1.053-0.338-1.327-1.699-1.735-2.652c2.314-0.781,3.983-3.101,6.64-3.065c0.308-0.855-0.173-1.64-0.308-2.456
			c-3.305-1.467-8.544,7.251-8.984-0.307c3.302-0.204,5.413-3.27,8.684-3.576l0.098-2.448c-3.712-0.374-6.099,3.441-9.809,3.065
			l-0.818-3.267c4.291,0.268,6.849-3.578,10.936-3.785c0.543-0.714,0.609-1.77,0.713-2.757c-4.462-0.581-7.523,4.363-12.258,2.861
			c0,0-0.164-2.057-0.252-3.218h0.007c-0.032-0.454-0.063-0.77-0.063-0.77c4.222,1.638,7.933-1.394,11.544-2.96
			c0.919-0.275,2.352,0.202,2.763-0.819c-0.036-0.783,1.393-1.699,0.204-2.246c-5.281-0.717-8.789,5.652-14.204,2.756l-0.406-0.819
			c1.126-15.391,9.805-30.27,24.208-37.592c5.833-3.334,13.08-5.033,20.389-5.093c8.82-0.073,17.732,2.24,24.362,6.934
			c6.438,3.949,12.596,10.458,15.939,17.064c3.197,5.789,4.668,12.284,5.107,19.199c-5.587,4.221-9.334-3.976-15.022-2.142
			c0.307,0.887,0.476,1.805,1.127,2.554c5.041-0.036,8.513,5.243,13.79,3.162L322.967,455.493L322.967,455.493z M258.801,436.539
			c-3.542-2.316-8.033-0.135-11.334,1.127c-0.307-3.101-1.566-5.925-4.191-7.968c-0.255-0.127-0.607-0.393-0.924-0.413
			c-0.19-0.012-0.37,0.065-0.511,0.307c1.19,7.321-3.569,12.428-6.941,17.981c1.123,0.917,2.927,0.78,4.289,0.511
			c3.575-1.43,6.98-3.918,11.237-3.065c1.259-2.145,3.373-4.223,5.108-5.925C256.593,438.177,258.049,437.594,258.801,436.539
			L258.801,436.539z M269.632,441.136c-0.068,0.441,0.034,1.227,0.713,0.923c1.057-1.464,2.929-0.306,4.086-0.203v-0.412
			c-0.635-0.997-1.941-1.497-3.267-1.448c-0.306,0.011-0.617,0.055-0.917,0.125C269.804,440.22,269.495,440.626,269.632,441.136z
			 M286.283,436.749c-0.951-2.112-3.13-2.967-5.108-3.478c-0.97-0.119-1.976-0.2-2.974-0.209c-0.187-0.002-0.374-0.004-0.56,0
			c-2.792,0.056-5.459,0.773-7.088,3.071c-0.234,0.649-1.262,1.56-0.307,2.141c2.145-0.137,4.594-0.406,6.024,1.435
			c0,1.636,1.056,3.813-0.713,4.596c-1.467-1.358-3.203,0.578-4.8-0.512c-0.75-0.443-1.225,0.074-1.532,0.721
			c-0.444,4.222,1.767,8.881,5.716,11.229c1.6,0.577,3.752,1.126,5.423,0.307c4.018-1.871,5.682-6.159,6.431-10.11
			c-0.1-0.751-0.065-2.216-1.119-2.253c-1.191,0.754-2.929,0.308-4.191,0c-0.747,0.241-0.781,1.333-1.63,1.54l-0.518-0.413
			c-0.444-1.871-0.717-4.527,1.022-5.822c1.943-0.783,4.224-1.125,6.233-0.511C286.967,437.837,286.388,437.328,286.283,436.749
			L286.283,436.749z M284.233,440.107c-0.135,0.003-0.267,0.01-0.399,0.015c-0.714,0.476-2.793,0.134-2.042,1.735
			c1.295-1.024,3.1-0.306,4.394,0.203c0.479-0.237,0.374-0.714,0.406-1.125C286.176,440.161,285.183,440.088,284.233,440.107
			L284.233,440.107z M299.06,425.709c-2.521-0.133-4.631,1.298-6.947,1.944c-0.202-1.971,1.295-4.052,1.637-6.03
			c-3.745,0.241-6.711,2.495-9.809,4.295c-0.717-1.732-1.436-3.473-2.148-5.212l4.086-3.882l0.105-0.512l-5.52-0.307
			c-0.951-1.666-1.326-3.672-2.449-5.205c-0.919,1.736-1.537,3.575-2.456,5.31l-5.513,0.308v0.406l4.184,3.778
			c-0.512,1.942-0.987,4.053-2.246,5.52c-2.452-1.469-4.868-3.066-7.556-4.086c-0.647-0.209-1.569-0.548-2.148-0.105
			c0.85,1.874,2.041,3.889,1.84,5.934c-1.125-0.207-2.008-0.928-3.065-1.231c-1.263-0.345-2.762-1.018-3.988-0.609
			c2.044,2.859,3.712,5.851,4.289,9.291c6.779-3.272,14.685-5.072,22.893-3.673c3.847,0.612,7.384,2.179,10.824,3.47
			C295.208,431.505,297.49,428.606,299.06,425.709L299.06,425.709z M310.702,445.326c3.471,0.919,6.953,4.7,10.628,2.247
			c-3.201-5.311-7.965-10.216-6.64-17.162c0.139-0.474-0.168-0.955-0.609-1.022c-2.076,0.849-3.685,2.895-4.506,4.905
			c-0.338,1.189-0.538,2.453-1.014,3.574c-2.487-1.295-5.142-2.549-8.172-2.246c-1.093,0.136-2.659,0.208-2.861,1.329
			c3.439,1.838,6.267,4.905,8.375,8.172C307.37,444.885,309.169,445.09,310.702,445.326L310.702,445.326z M274.333,450.127
			l0.098,0.616c1.331,0.886,1.74,2.389,3.582,2.253c1.634,0.097,2.859-1.433,3.673-2.659
			C279.476,450.031,276.786,450.503,274.333,450.127L274.333,450.127z M276.173,447.37c0.066,0.272-0.169,0.681,0.203,0.819
			c1.09-0.237,3.064,0.58,3.673-0.714c-0.425-0.476-1.119-0.692-1.847-0.692C277.474,446.783,276.719,446.995,276.173,447.37z"/>
	</g>
</g>
</svg>
