<?xml version="1.0" encoding="utf-8"?>
<!-- Generator: Adobe Illustrator 21.0.2, SVG Export Plug-In . SVG Version: 6.00 Build 0)  -->
<svg version="1.1" id="Layer_1" xmlns="http://www.w3.org/2000/svg" xmlns:xlink="http://www.w3.org/1999/xlink" x="0px" y="0px"
	 viewBox="0 0 434.699 134.414" enable-background="new 0 0 434.699 134.414" xml:space="preserve">
<g>
	<defs>
		<path id="SVGID_1_" d="M0,67.206C0,30.083,30.083,0,67.206,0c37.123,0,67.207,30.083,67.207,67.206
			c0,37.128-30.084,67.208-67.207,67.208C30.083,134.414,0,104.334,0,67.206"/>
	</defs>
	<clipPath id="SVGID_2_">
		<use xlink:href="#SVGID_1_"  overflow="visible"/>
	</clipPath>
	<g clip-path="url(#SVGID_2_)">
		<defs>
			<path id="SVGID_3_" d="M0,67.206c0,37.12,30.087,67.208,67.206,67.208c37.115,0,67.207-30.088,67.207-67.208
				c0,37.128-30.084,67.208-67.207,67.208C30.083,134.414,0,104.334,0,67.206 M67.206,0c37.123,0,67.207,30.083,67.207,67.206
				C134.413,30.087,104.322,0,67.206,0 M67.206,0C30.087,0,0,30.087,0,67.206C0,30.083,30.083,0,67.206,0"/>
		</defs>
		<clipPath id="SVGID_4_">
			<use xlink:href="#SVGID_3_"  overflow="visible"/>
		</clipPath>
		<g clip-path="url(#SVGID_4_)">
			
				<image overflow="visible" width="623" height="622" xlink:href="5248665F5FA2C025.jpg"  transform="matrix(0.217 0 0 0.217 -0.3828 -0.2837)">
			</image>
		</g>
	</g>
	<g clip-path="url(#SVGID_2_)">
		<defs>
			<path id="SVGID_5_" d="M134.413,67.206c0,37.12-30.091,67.208-67.207,67.208C104.313,134.414,134.413,104.313,134.413,67.206
				 M0,67.206c0,37.107,30.103,67.208,67.206,67.208C30.087,134.414,0,104.326,0,67.206 M22.58,86.051
				C20.207,66.1,34.47,47.992,54.425,45.623c13.815-1.647,26.738,4.688,34.177,15.357c-5.859-5.958-14.315-9.245-23.255-8.184
				c-15.345,1.827-26.295,15.74-24.476,31.081c1.823,15.345,15.678,25.701,31.08,24.476c15.329-1.221,29.034-15.919,25.994-38.035
				c-2.901-21.07-20.606-35.183-41.88-35.183c-23.48,0-42.519,19.138-42.519,42.739c0,3.137,0.333,6.193,0.968,9.136l0.382,1.477
				C7.1,69.941,9.509,47.821,23.08,31.121c19.614-24.139,55.109-27.768,79.24-8.159l-0.008-0.012
				c13.331,10.197,22.128,26.413,22.128,44.496c0,30.816-24.419,55.63-55.797,55.796c-0.125,0.002-0.255,0.002-0.379,0.002
				C26.149,123.249,22.58,86.051,22.58,86.051 M64.31,101.547c5.119,0.118,10.246-2.043,13.729-6.332
				c5.978-7.357,4.858-18.173-2.503-24.147c-7.361-5.986-18.169-4.862-24.15,2.495c-3.483,4.285-4.554,9.742-3.39,14.734
				c-3.092-7.357-2.136-16.135,3.243-22.759c7.789-9.571,21.855-11.023,31.431-3.247c9.571,7.776,11.028,21.843,3.247,31.418
				c-4.413,5.43-10.848,8.249-17.337,8.249C67.152,101.958,65.721,101.822,64.31,101.547 M63.17,97.413
				c-7.19-0.305-12.761-6.381-12.452-13.571c0.216-4.973,3.195-9.168,7.386-11.186c-2.437,1.729-4.085,4.521-4.22,7.744
				c-0.24,5.522,4.041,10.189,9.567,10.425c5.526,0.244,10.198-4.041,10.433-9.566c0.143-3.219-1.257-6.145-3.536-8.073
				c4,2.368,6.608,6.803,6.397,11.776c-0.305,6.993-6.07,12.464-12.999,12.464C63.555,97.425,63.363,97.421,63.17,97.413 M67.206,0
				c37.115,0,67.207,30.087,67.207,67.206C134.413,30.103,104.313,0,67.206,0 M0,67.206C0,30.087,30.087,0,67.206,0
				C30.103,0,0,30.103,0,67.206L0,67.206"/>
		</defs>
		<clipPath id="SVGID_6_">
			<use xlink:href="#SVGID_5_"  overflow="visible"/>
		</clipPath>
	</g>
	<g clip-path="url(#SVGID_2_)">
		<defs>
			<path id="SVGID_7_" d="M0,67.206C0,30.103,30.103,0,67.206,0c37.107,0,67.207,30.103,67.207,67.206
				c0,37.107-30.1,67.208-67.207,67.208C30.103,134.414,0,104.313,0,67.206 M54.425,45.623C34.47,47.992,20.207,66.1,22.58,86.051
				c0,0,3.597,37.416,46.063,37.192c31.377-0.166,55.797-24.98,55.797-55.796c0-18.083-8.797-34.299-22.128-44.496l0.008,0.012
				c-24.13-19.609-59.626-15.98-79.24,8.159c-13.571,16.7-15.98,38.82-8.183,57.368l-0.382-1.477
				c-0.635-2.942-0.968-5.998-0.968-9.136c0-23.601,19.039-42.739,42.519-42.739c21.274,0,38.979,14.112,41.88,35.183
				c3.04,22.116-10.665,36.814-25.994,38.035c-15.402,1.225-29.257-9.131-31.08-24.476c-1.819-15.341,9.131-29.254,24.476-31.081
				c8.94-1.062,17.396,2.226,23.255,8.184c-6.652-9.542-17.688-15.617-29.829-15.617C57.338,45.365,55.886,45.45,54.425,45.623
				 M85.916,93.709c7.781-9.575,6.324-23.642-3.247-31.418c-9.575-7.776-23.642-6.324-31.431,3.247
				c-5.379,6.624-6.335,15.401-3.243,22.759c-1.164-4.993-0.093-10.449,3.39-14.734c5.982-7.357,16.789-8.48,24.15-2.495
				c7.361,5.974,8.48,16.79,2.503,24.147c-3.483,4.289-8.611,6.449-13.729,6.332C72.138,103.073,80.533,100.334,85.916,93.709
				 M50.718,83.842c-0.309,7.19,5.262,13.266,12.452,13.571c7.183,0.313,13.262-5.266,13.575-12.452
				c0.211-4.973-2.396-9.408-6.397-11.776c2.279,1.929,3.679,4.854,3.536,8.073c-0.235,5.526-4.907,9.811-10.433,9.566
				c-5.526-0.236-9.807-4.903-9.567-10.425c0.134-3.223,1.783-6.015,4.22-7.744C53.913,74.674,50.934,78.869,50.718,83.842"/>
		</defs>
		<use xlink:href="#SVGID_7_"  overflow="visible"/>
		<clipPath id="SVGID_8_">
			<use xlink:href="#SVGID_7_"  overflow="visible"/>
		</clipPath>
	</g>
</g>
<g>
	<path d="M297.607,61.221v0.411h8.725c0-3.955,0.198-9.102-9.294-9.102h-0.014h-28.634c0,0,0,8.125,0,11.251
		c0,3.127,1.415,8.454,8.825,8.454c6.145,0,20.677,0,20.677,0s0,1.424,0,1.767c0,2.022-0.197,2.917-4.08,2.917
		c0,0-13.499,0-15.277,0c-1.78,0-1.639-1.482-1.639-1.482v-0.551h-8.801c0,0,0,1.233,0,2.476c0,2.841,1.166,6.871,7.738,6.871
		c0,0,20.706,0,22.67,0c4.28,0,8.905-1.6,8.905-7.131c0-1.291,0-3.215,0-5.221c0-3.147-0.757-7.193-7.914-7.193H283.27
		c-4.69,0-5.423-1.082-5.423-3.215v-1.63c0,0,17.605,0,18.19,0C296.668,59.842,297.607,60.091,297.607,61.221L297.607,61.221z"/>
	<path d="M187.225,70.645c0,2.008-0.402,3.452-1.209,4.287c-0.81,0.83-2.198,1.249-4.164,1.249h-9.54
		c-1.968,0-3.354-0.419-4.158-1.249c-0.812-0.834-1.216-2.279-1.216-4.287V52.532h-9.624V72.72c0,3.931,1.038,6.831,3.119,8.707
		c2.085,1.876,5.336,2.806,9.758,2.806h26.65l0.017-31.701h-9.634V70.645L187.225,70.645z"/>
	<path d="M239.134,67.962c1.617-0.447,2.795-1.152,3.531-2.101c0.732-0.931,1.104-2.624,1.104-5.088
		c0-3.038-0.906-5.162-2.705-6.381c-1.807-1.229-4.709-1.861-8.691-1.861h-27.71v31.701h30.653c3.059,0,5.436-0.605,7.085-1.787
		c1.665-1.182,2.489-3.67,2.489-6.847c0-2.432-0.42-4.226-1.293-5.392C242.734,69.034,241.239,68.284,239.134,67.962
		 M214.251,59.839h17.07c1.88,0,2.817,0.83,2.817,2.481c0,0.903-0.225,1.753-0.688,2.126c-0.458,0.366-1.169,0.534-2.129,0.534
		h-17.07V59.839 M234.139,76.416c-0.573,0.338-1.441,0.501-2.595,0.501h-17.293V71.47h17.293c1.131,0,1.982,0.188,2.58,0.576
		c0.596,0.379,0.889,1.267,0.889,2.263C235.013,75.169,234.728,76.074,234.139,76.416L234.139,76.416z"/>
	<polygon points="251.099,84.233 260.717,84.233 260.717,52.532 251.099,52.532 251.099,84.233 	"/>
	<polygon points="361.611,84.233 371.224,84.233 371.224,73.953 393.297,73.953 393.297,65.899 371.224,65.899 371.224,60.564 
		394.386,60.564 394.386,52.532 361.611,52.532 361.611,84.233 	"/>
	<polygon points="398.008,52.532 398.008,60.528 411.529,60.528 411.529,84.233 421.169,84.233 421.169,60.528 434.699,60.528 
		434.699,52.532 398.008,52.532 	"/>
	<path d="M326.192,52.532c-6.014,0-8.223,0.915-10.357,2.452c-2.136,1.538-3.463,4.206-3.463,8.534v9.369
		c0,4.36,1.131,7.347,3.396,8.949c2.269,1.611,5.259,2.398,10.423,2.398h14.6c5.162,0,7.887-0.709,10.171-2.334
		c2.261-1.612,3.31-4.123,3.31-9.012V52.532H326.192 M344.56,70.2c0,2.599-0.255,3.749-1.067,4.614
		c-0.811,0.866-2.21,1.366-4.402,1.366h-11.577c-2.496,0-3.686-0.566-4.398-1.395c-0.711-0.829-1.101-2.247-1.101-4.89v-3.379
		c0-2.166,0.411-3.473,1.228-4.473c0.826-1.016,2.416-1.513,4.791-1.513h16.527V70.2L344.56,70.2z"/>
</g>
</svg>
