<?xml version="1.0" encoding="utf-8"?>
<!-- Generator: Adobe Illustrator 21.0.2, SVG Export Plug-In . SVG Version: 6.00 Build 0)  -->
<svg version="1.1" id="Layer_1" xmlns="http://www.w3.org/2000/svg" xmlns:xlink="http://www.w3.org/1999/xlink" x="0px" y="0px"
	 viewBox="0 0 358.6 275.7" style="enable-background:new 0 0 358.6 275.7;" xml:space="preserve">
<style type="text/css">
	.st0{fill:#231F20;}
	.st1{fill:#FFFFFF;}
</style>
<g>
	<path class="st0" d="M6.2,204c25.7,66.8,124.1,91.3,219.7,54.8c95.6-36.5,152.2-120.3,126.5-187.1C326.6,4.9,228.3-19.6,132.7,16.9
		C37.1,53.5-19.5,137.2,6.2,204z"/>
	<g>
		<ellipse class="st1" cx="281.6" cy="168.6" rx="12" ry="12.4"/>
		<path class="st1" d="M325.9,161.9l-0.7-1.2l-33.1-58.2l-1.1-1.7c-2.3-3.6-5.2-5.9-9.3-6h0c-4.1,0.1-7.1,2.5-9.4,6.2l-1.1,1.7
			l-32.9,57.6l-1,1.8c-1.4,2.6-2.5,4.7-2.5,7.4c0,6.2,4.7,10.9,10.7,10.9c3.9,0,7.2-2.4,9.7-6.3l1-1.5l25.6-45.7l25.6,45.9l0.8,1.2
			c2.5,3.9,5.8,6.4,9.8,6.4c6,0,10.7-4.7,10.7-10.9C328.5,166.8,327.3,164.5,325.9,161.9z M250.8,105.6c0-6.2-4.5-10.3-10.6-10.6
			c0,0-0.9-0.1-2.1-0.1c-11.2,0-69.5,0-81.8,0c-1.4,0-1.7,0-2.5,0c-4.3,0.1-7.5,2.3-9.3,5.9c-0.7,1.1-1.1,2.1-1.1,2.1L125.7,143
			c0,0-16.1-36.4-16.7-37.7c-0.6-1.3-1.1-2.4-1.1-2.4c-2.7-5.7-6.2-8-10.5-8c-4.1,0-7.4,1.7-10.5,7.8c0,0-0.4,0.9-1,2.2
			C85.3,106.2,69,143,69,143l-16.9-38.1l-0.8-1.6c-2.3-5.1-5.1-8.1-10.5-8.4c-3.9-0.2-7.6,2.1-9.5,5.4c-1,1.7-2.2,5,0,10.7
			c0.2,0.5,0.3,0.8,0.8,1.8C36,121.6,53.6,161,58,171c0.5,1.1,1,2,1.4,2.8c2.4,4.3,5.7,6.7,9.6,6.7c4.1,0,7.4-2.2,9.9-6.7
			c0.6-1,1.6-3.5,1.6-3.5l16.8-38.1c0,0,17.1,38.7,17.5,39.5c0.4,0.8,0.8,1.5,1.5,2.7c2.1,3.6,4.8,6,9.3,6c4.6,0,6.8-2.4,9.3-6
			c0.3-0.5,0.9-1.6,1.6-3c0.7-1.5,24.5-55,24.5-55l27.6,0l0,51.1l0.1,1.7c0.2,6.3,4.9,11.3,10.9,11.3c6.2,0,10.5-4.9,10.7-11.3
			l0.1-1.7v-51c0,0,25.8,0,27.6,0c1.2,0,1.5,0,1.9-0.1C246,116.2,250.8,111.7,250.8,105.6z"/>
	</g>
</g>
</svg>
