<?xml version="1.0" encoding="utf-8"?>
<!-- Generator: Adobe Illustrator 21.0.2, SVG Export Plug-In . SVG Version: 6.00 Build 0)  -->
<svg version="1.1" id="Layer_1" xmlns="http://www.w3.org/2000/svg" xmlns:xlink="http://www.w3.org/1999/xlink" x="0px" y="0px"
	 viewBox="0 0 358.6 275.7" style="enable-background:new 0 0 358.6 275.7;" xml:space="preserve">
<style type="text/css">
	.st0{fill:#231F20;}
</style>
<g>
	<path class="st0" d="M352.4,71.7C326.6,4.9,228.3-19.6,132.7,16.9C37.1,53.5-19.5,137.2,6.2,204s124.1,91.3,219.7,54.8
		S378.1,138.5,352.4,71.7z M210.4,116.5v51l-0.1,1.7c-0.2,6.4-4.5,11.3-10.7,11.3c-6,0-10.7-5-10.9-11.3l-0.1-1.7v-51.1H161
		c0,0-23.8,53.5-24.5,55c-0.7,1.4-1.3,2.5-1.6,3c-2.5,3.6-4.7,6-9.3,6c-4.5,0-7.2-2.4-9.3-6c-0.7-1.2-1.1-1.9-1.5-2.7
		c-0.4-0.8-17.5-39.5-17.5-39.5l-16.8,38.1c0,0-1,2.5-1.6,3.5c-2.5,4.5-5.8,6.7-9.9,6.7c-3.9,0-7.2-2.4-9.6-6.7
		c-0.4-0.8-0.9-1.7-1.4-2.8c-4.4-10-22-49.4-25.9-58.2c-0.5-1-0.6-1.3-0.8-1.8c-2.2-5.7-1-9,0-10.7c1.9-3.3,5.6-5.6,9.5-5.4
		c5.4,0.3,8.2,3.3,10.5,8.4l0.8,1.6L69,143c0,0,16.3-36.8,16.9-38.1c0.6-1.3,1-2.2,1-2.2c3.1-6.1,6.4-7.8,10.5-7.8
		c4.3,0,7.8,2.3,10.5,8c0,0,0.5,1.1,1.1,2.4s16.7,37.7,16.7,37.7l17.7-40.1c0,0,0.4-1,1.1-2.1c1.8-3.6,5-5.8,9.3-5.9
		c0.8,0,1.1,0,2.5,0c12.3,0,70.6,0,81.8,0c1.2,0,2.1,0.1,2.1,0.1c6.1,0.3,10.6,4.4,10.6,10.6c0,6.1-4.8,10.6-10.9,10.8
		c-0.4,0.1-0.7,0.1-1.9,0.1C236.2,116.5,210.4,116.5,210.4,116.5z M281.6,181c-6.6,0-12-5.6-12-12.4s5.4-12.4,12-12.4
		c6.6,0,12,5.6,12,12.4S288.2,181,281.6,181z M318,180.4c-4,0-7.3-2.5-9.8-6.4l-0.8-1.2l-25.6-45.9l-25.6,45.7l-1,1.5
		c-2.5,3.9-5.8,6.3-9.7,6.3c-6,0-10.7-4.7-10.7-10.9c0-2.7,1.1-4.8,2.5-7.4l1-1.8l32.9-57.6l1.1-1.7c2.3-3.7,5.3-6.1,9.4-6.2
		c4.1,0.1,7,2.4,9.3,6l1.1,1.7l33.1,58.2l0.7,1.2c1.4,2.6,2.6,4.9,2.8,7.6C328.7,175.7,324,180.4,318,180.4z"/>
</g>
</svg>
